<svg xmlns="http://www.w3.org/2000/svg" xmlns:xlink="http://www.w3.org/1999/xlink" width="285" zoomAndPan="magnify" viewBox="0 0 213.75 265.499997" height="354" preserveAspectRatio="xMidYMid meet" version="1.0"><metadata/><defs><clipPath id="77552f9ad5"><path d="M 11 22 L 174 22 L 174 257 L 11 257 Z M 11 22 " clip-rule="nonzero"/></clipPath><clipPath id="6eef75e6bf"><path d="M 88.679688 0 L 213.019531 51.917969 L 124.476562 263.992188 L 0.132812 212.074219 Z M 88.679688 0 " clip-rule="nonzero"/></clipPath><clipPath id="c7755bb384"><path d="M 88.679688 0 L 213.019531 51.917969 L 124.476562 263.992188 L 0.132812 212.074219 Z M 88.679688 0 " clip-rule="nonzero"/></clipPath><clipPath id="fd462b0651"><path d="M 88.679688 0 L 213.019531 51.917969 L 124.476562 263.992188 L 0.132812 212.074219 Z M 88.679688 0 " clip-rule="nonzero"/></clipPath><clipPath id="3949ad0990"><path d="M 141 116 L 163 116 L 163 158 L 141 158 Z M 141 116 " clip-rule="nonzero"/></clipPath><clipPath id="24f5b3c912"><path d="M 88.679688 0 L 213.019531 51.917969 L 124.476562 263.992188 L 0.132812 212.074219 Z M 88.679688 0 " clip-rule="nonzero"/></clipPath><clipPath id="c85e6927c9"><path d="M 88.679688 0 L 213.019531 51.917969 L 124.476562 263.992188 L 0.132812 212.074219 Z M 88.679688 0 " clip-rule="nonzero"/></clipPath><clipPath id="ce5de3b6da"><path d="M 88.679688 0 L 213.019531 51.917969 L 124.476562 263.992188 L 0.132812 212.074219 Z M 88.679688 0 " clip-rule="nonzero"/></clipPath><clipPath id="dc744258cc"><path d="M 88 227 L 127 227 L 127 248 L 88 248 Z M 88 227 " clip-rule="nonzero"/></clipPath><clipPath id="523e85248c"><path d="M 88.679688 0 L 213.019531 51.917969 L 124.476562 263.992188 L 0.132812 212.074219 Z M 88.679688 0 " clip-rule="nonzero"/></clipPath><clipPath id="b8aa8d6728"><path d="M 88.679688 0 L 213.019531 51.917969 L 124.476562 263.992188 L 0.132812 212.074219 Z M 88.679688 0 " clip-rule="nonzero"/></clipPath><clipPath id="591998fdb1"><path d="M 88.679688 0 L 213.019531 51.917969 L 124.476562 263.992188 L 0.132812 212.074219 Z M 88.679688 0 " clip-rule="nonzero"/></clipPath><clipPath id="a3be9f3034"><path d="M 68 125 L 154 125 L 154 238 L 68 238 Z M 68 125 " clip-rule="nonzero"/></clipPath><clipPath id="c140279126"><path d="M 88.679688 0 L 213.019531 51.917969 L 124.476562 263.992188 L 0.132812 212.074219 Z M 88.679688 0 " clip-rule="nonzero"/></clipPath><clipPath id="7fd3f7caca"><path d="M 88.679688 0 L 213.019531 51.917969 L 124.476562 263.992188 L 0.132812 212.074219 Z M 88.679688 0 " clip-rule="nonzero"/></clipPath><clipPath id="d6dcd9a6aa"><path d="M 88.679688 0 L 213.019531 51.917969 L 124.476562 263.992188 L 0.132812 212.074219 Z M 88.679688 0 " clip-rule="nonzero"/></clipPath><clipPath id="01d77a638a"><path d="M 39 189 L 112 189 L 112 222 L 39 222 Z M 39 189 " clip-rule="nonzero"/></clipPath><clipPath id="b39185cef1"><path d="M 88.679688 0 L 213.019531 51.917969 L 124.476562 263.992188 L 0.132812 212.074219 Z M 88.679688 0 " clip-rule="nonzero"/></clipPath><clipPath id="c42ffc9be0"><path d="M 88.679688 0 L 213.019531 51.917969 L 124.476562 263.992188 L 0.132812 212.074219 Z M 88.679688 0 " clip-rule="nonzero"/></clipPath><clipPath id="bc4240f279"><path d="M 88.679688 0 L 213.019531 51.917969 L 124.476562 263.992188 L 0.132812 212.074219 Z M 88.679688 0 " clip-rule="nonzero"/></clipPath><clipPath id="240ba5a9f4"><path d="M 45 217 L 92 217 L 92 238 L 45 238 Z M 45 217 " clip-rule="nonzero"/></clipPath><clipPath id="be631f1be7"><path d="M 88.679688 0 L 213.019531 51.917969 L 124.476562 263.992188 L 0.132812 212.074219 Z M 88.679688 0 " clip-rule="nonzero"/></clipPath><clipPath id="3e6cc705ec"><path d="M 88.679688 0 L 213.019531 51.917969 L 124.476562 263.992188 L 0.132812 212.074219 Z M 88.679688 0 " clip-rule="nonzero"/></clipPath><clipPath id="3360b2db4a"><path d="M 88.679688 0 L 213.019531 51.917969 L 124.476562 263.992188 L 0.132812 212.074219 Z M 88.679688 0 " clip-rule="nonzero"/></clipPath><clipPath id="d1a840e6df"><path d="M 106 79 L 139 79 L 139 108 L 106 108 Z M 106 79 " clip-rule="nonzero"/></clipPath><clipPath id="63f80e1034"><path d="M 88.679688 0 L 213.019531 51.917969 L 124.476562 263.992188 L 0.132812 212.074219 Z M 88.679688 0 " clip-rule="nonzero"/></clipPath><clipPath id="8a078aca9f"><path d="M 88.679688 0 L 213.019531 51.917969 L 124.476562 263.992188 L 0.132812 212.074219 Z M 88.679688 0 " clip-rule="nonzero"/></clipPath><clipPath id="997e1657b4"><path d="M 88.679688 0 L 213.019531 51.917969 L 124.476562 263.992188 L 0.132812 212.074219 Z M 88.679688 0 " clip-rule="nonzero"/></clipPath><clipPath id="576d6231e0"><path d="M 28 111 L 119 111 L 119 208 L 28 208 Z M 28 111 " clip-rule="nonzero"/></clipPath><clipPath id="c4c3da0730"><path d="M 88.679688 0 L 213.019531 51.917969 L 124.476562 263.992188 L 0.132812 212.074219 Z M 88.679688 0 " clip-rule="nonzero"/></clipPath><clipPath id="44ce8f13e9"><path d="M 88.679688 0 L 213.019531 51.917969 L 124.476562 263.992188 L 0.132812 212.074219 Z M 88.679688 0 " clip-rule="nonzero"/></clipPath><clipPath id="b5bdd47c1e"><path d="M 88.679688 0 L 213.019531 51.917969 L 124.476562 263.992188 L 0.132812 212.074219 Z M 88.679688 0 " clip-rule="nonzero"/></clipPath><clipPath id="6262d60cc3"><path d="M 79 103 L 112 103 L 112 114 L 79 114 Z M 79 103 " clip-rule="nonzero"/></clipPath><clipPath id="47e0e497a1"><path d="M 88.679688 0 L 213.019531 51.917969 L 124.476562 263.992188 L 0.132812 212.074219 Z M 88.679688 0 " clip-rule="nonzero"/></clipPath><clipPath id="6eb7984172"><path d="M 88.679688 0 L 213.019531 51.917969 L 124.476562 263.992188 L 0.132812 212.074219 Z M 88.679688 0 " clip-rule="nonzero"/></clipPath><clipPath id="18a1c4f772"><path d="M 88.679688 0 L 213.019531 51.917969 L 124.476562 263.992188 L 0.132812 212.074219 Z M 88.679688 0 " clip-rule="nonzero"/></clipPath><clipPath id="60b678d6a0"><path d="M 19 191 L 68 191 L 68 220 L 19 220 Z M 19 191 " clip-rule="nonzero"/></clipPath><clipPath id="86b2839084"><path d="M 88.679688 0 L 213.019531 51.917969 L 124.476562 263.992188 L 0.132812 212.074219 Z M 88.679688 0 " clip-rule="nonzero"/></clipPath><clipPath id="bf614772d9"><path d="M 88.679688 0 L 213.019531 51.917969 L 124.476562 263.992188 L 0.132812 212.074219 Z M 88.679688 0 " clip-rule="nonzero"/></clipPath><clipPath id="4914862624"><path d="M 88.679688 0 L 213.019531 51.917969 L 124.476562 263.992188 L 0.132812 212.074219 Z M 88.679688 0 " clip-rule="nonzero"/></clipPath><clipPath id="9e6363e918"><path d="M 57 93 L 87 93 L 87 113 L 57 113 Z M 57 93 " clip-rule="nonzero"/></clipPath><clipPath id="c42f1dd85c"><path d="M 88.679688 0 L 213.019531 51.917969 L 124.476562 263.992188 L 0.132812 212.074219 Z M 88.679688 0 " clip-rule="nonzero"/></clipPath><clipPath id="a2d67ccbfb"><path d="M 88.679688 0 L 213.019531 51.917969 L 124.476562 263.992188 L 0.132812 212.074219 Z M 88.679688 0 " clip-rule="nonzero"/></clipPath><clipPath id="9d3f86f180"><path d="M 88.679688 0 L 213.019531 51.917969 L 124.476562 263.992188 L 0.132812 212.074219 Z M 88.679688 0 " clip-rule="nonzero"/></clipPath><clipPath id="a969ca7a7d"><path d="M 26 121 L 54 121 L 54 182 L 26 182 Z M 26 121 " clip-rule="nonzero"/></clipPath><clipPath id="b4cfe4640a"><path d="M 88.679688 0 L 213.019531 51.917969 L 124.476562 263.992188 L 0.132812 212.074219 Z M 88.679688 0 " clip-rule="nonzero"/></clipPath><clipPath id="7aa08a73bf"><path d="M 88.679688 0 L 213.019531 51.917969 L 124.476562 263.992188 L 0.132812 212.074219 Z M 88.679688 0 " clip-rule="nonzero"/></clipPath><clipPath id="4d9deda0a3"><path d="M 88.679688 0 L 213.019531 51.917969 L 124.476562 263.992188 L 0.132812 212.074219 Z M 88.679688 0 " clip-rule="nonzero"/></clipPath><clipPath id="1d7013656a"><path d="M 11 22 L 174 22 L 174 257 L 11 257 Z M 11 22 " clip-rule="nonzero"/></clipPath><clipPath id="33090ce811"><path d="M 88.679688 0 L 213.019531 51.917969 L 124.476562 263.992188 L 0.132812 212.074219 Z M 88.679688 0 " clip-rule="nonzero"/></clipPath><clipPath id="65034c9a47"><path d="M 88.679688 0 L 213.019531 51.917969 L 124.476562 263.992188 L 0.132812 212.074219 Z M 88.679688 0 " clip-rule="nonzero"/></clipPath><clipPath id="57dd483500"><path d="M 88.679688 0 L 213.019531 51.917969 L 124.476562 263.992188 L 0.132812 212.074219 Z M 88.679688 0 " clip-rule="nonzero"/></clipPath><clipPath id="a1ca8ac3a1"><path d="M 141 116 L 163 116 L 163 158 L 141 158 Z M 141 116 " clip-rule="nonzero"/></clipPath><clipPath id="34179d1c44"><path d="M 88.679688 0 L 213.019531 51.917969 L 124.476562 263.992188 L 0.132812 212.074219 Z M 88.679688 0 " clip-rule="nonzero"/></clipPath><clipPath id="67d1f12ddc"><path d="M 88.679688 0 L 213.019531 51.917969 L 124.476562 263.992188 L 0.132812 212.074219 Z M 88.679688 0 " clip-rule="nonzero"/></clipPath><clipPath id="dba4ee1446"><path d="M 88.679688 0 L 213.019531 51.917969 L 124.476562 263.992188 L 0.132812 212.074219 Z M 88.679688 0 " clip-rule="nonzero"/></clipPath><clipPath id="029a83404f"><path d="M 88 227 L 127 227 L 127 248 L 88 248 Z M 88 227 " clip-rule="nonzero"/></clipPath><clipPath id="c7f7d8056e"><path d="M 88.679688 0 L 213.019531 51.917969 L 124.476562 263.992188 L 0.132812 212.074219 Z M 88.679688 0 " clip-rule="nonzero"/></clipPath><clipPath id="d7d7c16dad"><path d="M 88.679688 0 L 213.019531 51.917969 L 124.476562 263.992188 L 0.132812 212.074219 Z M 88.679688 0 " clip-rule="nonzero"/></clipPath><clipPath id="c1124a3815"><path d="M 88.679688 0 L 213.019531 51.917969 L 124.476562 263.992188 L 0.132812 212.074219 Z M 88.679688 0 " clip-rule="nonzero"/></clipPath><clipPath id="4fbf9c8316"><path d="M 68 125 L 154 125 L 154 238 L 68 238 Z M 68 125 " clip-rule="nonzero"/></clipPath><clipPath id="9e936dbe84"><path d="M 88.679688 0 L 213.019531 51.917969 L 124.476562 263.992188 L 0.132812 212.074219 Z M 88.679688 0 " clip-rule="nonzero"/></clipPath><clipPath id="751da2d9ba"><path d="M 88.679688 0 L 213.019531 51.917969 L 124.476562 263.992188 L 0.132812 212.074219 Z M 88.679688 0 " clip-rule="nonzero"/></clipPath><clipPath id="91f8a9011e"><path d="M 88.679688 0 L 213.019531 51.917969 L 124.476562 263.992188 L 0.132812 212.074219 Z M 88.679688 0 " clip-rule="nonzero"/></clipPath><clipPath id="1605350d91"><path d="M 39 189 L 112 189 L 112 222 L 39 222 Z M 39 189 " clip-rule="nonzero"/></clipPath><clipPath id="f6dae600ad"><path d="M 88.679688 0 L 213.019531 51.917969 L 124.476562 263.992188 L 0.132812 212.074219 Z M 88.679688 0 " clip-rule="nonzero"/></clipPath><clipPath id="f8040f4f1d"><path d="M 88.679688 0 L 213.019531 51.917969 L 124.476562 263.992188 L 0.132812 212.074219 Z M 88.679688 0 " clip-rule="nonzero"/></clipPath><clipPath id="724f07b790"><path d="M 88.679688 0 L 213.019531 51.917969 L 124.476562 263.992188 L 0.132812 212.074219 Z M 88.679688 0 " clip-rule="nonzero"/></clipPath><clipPath id="91545294d2"><path d="M 45 217 L 92 217 L 92 238 L 45 238 Z M 45 217 " clip-rule="nonzero"/></clipPath><clipPath id="cd20326cb9"><path d="M 88.679688 0 L 213.019531 51.917969 L 124.476562 263.992188 L 0.132812 212.074219 Z M 88.679688 0 " clip-rule="nonzero"/></clipPath><clipPath id="656ec9d6f5"><path d="M 88.679688 0 L 213.019531 51.917969 L 124.476562 263.992188 L 0.132812 212.074219 Z M 88.679688 0 " clip-rule="nonzero"/></clipPath><clipPath id="dd43b7a39a"><path d="M 88.679688 0 L 213.019531 51.917969 L 124.476562 263.992188 L 0.132812 212.074219 Z M 88.679688 0 " clip-rule="nonzero"/></clipPath><clipPath id="934a4fa625"><path d="M 106 79 L 139 79 L 139 108 L 106 108 Z M 106 79 " clip-rule="nonzero"/></clipPath><clipPath id="5e805ee871"><path d="M 88.679688 0 L 213.019531 51.917969 L 124.476562 263.992188 L 0.132812 212.074219 Z M 88.679688 0 " clip-rule="nonzero"/></clipPath><clipPath id="ae9d79e644"><path d="M 88.679688 0 L 213.019531 51.917969 L 124.476562 263.992188 L 0.132812 212.074219 Z M 88.679688 0 " clip-rule="nonzero"/></clipPath><clipPath id="7f97529244"><path d="M 88.679688 0 L 213.019531 51.917969 L 124.476562 263.992188 L 0.132812 212.074219 Z M 88.679688 0 " clip-rule="nonzero"/></clipPath><clipPath id="f747834856"><path d="M 28 111 L 119 111 L 119 208 L 28 208 Z M 28 111 " clip-rule="nonzero"/></clipPath><clipPath id="32cd3ffab1"><path d="M 88.679688 0 L 213.019531 51.917969 L 124.476562 263.992188 L 0.132812 212.074219 Z M 88.679688 0 " clip-rule="nonzero"/></clipPath><clipPath id="988df0e83f"><path d="M 88.679688 0 L 213.019531 51.917969 L 124.476562 263.992188 L 0.132812 212.074219 Z M 88.679688 0 " clip-rule="nonzero"/></clipPath><clipPath id="2b7d3f8a1b"><path d="M 88.679688 0 L 213.019531 51.917969 L 124.476562 263.992188 L 0.132812 212.074219 Z M 88.679688 0 " clip-rule="nonzero"/></clipPath><clipPath id="75a804f946"><path d="M 79 103 L 112 103 L 112 114 L 79 114 Z M 79 103 " clip-rule="nonzero"/></clipPath><clipPath id="c6e10cc604"><path d="M 88.679688 0 L 213.019531 51.917969 L 124.476562 263.992188 L 0.132812 212.074219 Z M 88.679688 0 " clip-rule="nonzero"/></clipPath><clipPath id="42051f13f2"><path d="M 88.679688 0 L 213.019531 51.917969 L 124.476562 263.992188 L 0.132812 212.074219 Z M 88.679688 0 " clip-rule="nonzero"/></clipPath><clipPath id="af81af7166"><path d="M 88.679688 0 L 213.019531 51.917969 L 124.476562 263.992188 L 0.132812 212.074219 Z M 88.679688 0 " clip-rule="nonzero"/></clipPath><clipPath id="495fb7b7c9"><path d="M 19 191 L 68 191 L 68 220 L 19 220 Z M 19 191 " clip-rule="nonzero"/></clipPath><clipPath id="28779f99e5"><path d="M 88.679688 0 L 213.019531 51.917969 L 124.476562 263.992188 L 0.132812 212.074219 Z M 88.679688 0 " clip-rule="nonzero"/></clipPath><clipPath id="3deb3077fb"><path d="M 88.679688 0 L 213.019531 51.917969 L 124.476562 263.992188 L 0.132812 212.074219 Z M 88.679688 0 " clip-rule="nonzero"/></clipPath><clipPath id="f353ec6585"><path d="M 88.679688 0 L 213.019531 51.917969 L 124.476562 263.992188 L 0.132812 212.074219 Z M 88.679688 0 " clip-rule="nonzero"/></clipPath><clipPath id="8c9cf4c805"><path d="M 57 93 L 87 93 L 87 113 L 57 113 Z M 57 93 " clip-rule="nonzero"/></clipPath><clipPath id="2f2cfe6875"><path d="M 88.679688 0 L 213.019531 51.917969 L 124.476562 263.992188 L 0.132812 212.074219 Z M 88.679688 0 " clip-rule="nonzero"/></clipPath><clipPath id="4dc17d1d76"><path d="M 88.679688 0 L 213.019531 51.917969 L 124.476562 263.992188 L 0.132812 212.074219 Z M 88.679688 0 " clip-rule="nonzero"/></clipPath><clipPath id="2e03ca98f1"><path d="M 88.679688 0 L 213.019531 51.917969 L 124.476562 263.992188 L 0.132812 212.074219 Z M 88.679688 0 " clip-rule="nonzero"/></clipPath><clipPath id="54ea632ed8"><path d="M 26 121 L 54 121 L 54 182 L 26 182 Z M 26 121 " clip-rule="nonzero"/></clipPath><clipPath id="bbf332d3ad"><path d="M 88.679688 0 L 213.019531 51.917969 L 124.476562 263.992188 L 0.132812 212.074219 Z M 88.679688 0 " clip-rule="nonzero"/></clipPath><clipPath id="4cd2fac61a"><path d="M 88.679688 0 L 213.019531 51.917969 L 124.476562 263.992188 L 0.132812 212.074219 Z M 88.679688 0 " clip-rule="nonzero"/></clipPath><clipPath id="e43c0f96f6"><path d="M 88.679688 0 L 213.019531 51.917969 L 124.476562 263.992188 L 0.132812 212.074219 Z M 88.679688 0 " clip-rule="nonzero"/></clipPath></defs><g clip-path="url(#77552f9ad5)"><g clip-path="url(#6eef75e6bf)"><g clip-path="url(#c7755bb384)"><g clip-path="url(#fd462b0651)"><path fill="#000000" d="M 137.496094 27.261719 C 145.351562 31.847656 153.289062 36.25 161.996094 38.917969 C 158.035156 33.042969 145.46875 27.871094 137.496094 27.261719 Z M 139.273438 79 C 141.949219 74.132812 144.539062 69.214844 147.511719 64.503906 C 140.699219 61.105469 134.074219 57.417969 127.21875 54.144531 C 125.609375 60.269531 124.582031 66.527344 123.386719 72.757812 C 128.542969 74.898438 133.921875 77.09375 139.273438 79 Z M 158.246094 50.171875 C 159.464844 48.023438 160.652344 45.871094 161.847656 43.738281 C 151.34375 40.65625 142 35.28125 132.558594 29.769531 C 131.414062 31.90625 130.386719 34.121094 129.839844 36.492188 C 129.851562 36.496094 129.867188 36.503906 129.894531 36.515625 C 138.996094 42.917969 147.964844 47.167969 158.246094 50.171875 Z M 160.96875 63.558594 C 164.882812 62.882812 165.191406 59.578125 162.84375 57.039062 C 160.953125 54.992188 156.847656 54.003906 154.28125 53.292969 C 145.003906 50.765625 137.078125 47.316406 129.15625 41.746094 C 126.632812 39.976562 122.597656 36.511719 119.261719 36.441406 C 112.21875 36.308594 119.230469 43.363281 119.734375 43.828125 C 120.75 44.769531 121.8125 45.632812 122.378906 46.835938 C 132.148438 50.9375 141.121094 56.480469 150.753906 60.878906 C 153.714844 62.238281 157.605469 64.144531 160.96875 63.558594 Z M 131.996094 219.414062 C 141.78125 196.261719 154.847656 174.632812 164.347656 151.363281 C 167.710938 143.128906 171.300781 134.667969 164.382812 127.257812 C 158.753906 121.238281 151.574219 117.03125 145.777344 111.164062 C 141.066406 106.386719 139.109375 100.101562 142.34375 93.777344 C 144.597656 89.402344 147.222656 85.347656 148.722656 80.601562 C 150.191406 76.042969 151.5 71.492188 153.316406 67.0625 C 152.78125 66.878906 152.261719 66.695312 151.757812 66.484375 C 151.746094 66.511719 151.734375 66.539062 151.722656 66.566406 C 148.335938 71.824219 145.542969 77.421875 142.464844 82.851562 C 141.628906 84.308594 139.898438 84.398438 138.804688 83.722656 C 138.589844 83.714844 138.367188 83.667969 138.132812 83.597656 C 132.078125 81.46875 120.09375 76.484375 120.09375 76.484375 C 119.363281 76.175781 118.941406 75.679688 118.753906 75.109375 C 118.46875 74.699219 118.328125 74.167969 118.453125 73.503906 C 119.875 66.363281 121.046875 59.203125 122.9375 52.171875 C 122.65625 52.054688 122.402344 51.949219 122.125 51.832031 C 121.394531 54.113281 120.269531 56.566406 119.886719 58.074219 C 118.871094 62.105469 117.917969 66.175781 116.644531 70.128906 C 114.328125 77.378906 111.375 84.777344 104.851562 89.214844 C 92.664062 97.484375 73.96875 79.410156 64.070312 91.601562 C 57.101562 100.175781 53.683594 110.878906 49.683594 121.019531 C 45.441406 131.796875 40.816406 142.429688 36.351562 153.121094 C 31.855469 163.894531 26.636719 174.351562 22.101562 185.101562 C 18.066406 194.648438 10.144531 209.503906 23.242188 214.953125 C 44.394531 223.738281 65.605469 232.402344 86.699219 241.3125 C 93.066406 243.988281 99.464844 246.660156 106 248.894531 C 111.203125 250.660156 116.976562 253.921875 120.953125 247.859375 C 126.535156 239.328125 128.078125 228.71875 131.996094 219.414062 Z M 171.839844 144.683594 C 165.058594 165.675781 153.242188 184.910156 143.777344 204.730469 C 139.410156 213.898438 135.144531 223.132812 132.164062 232.875 C 130.199219 239.292969 128.25 248.136719 122.90625 252.773438 C 117.464844 257.507812 113.378906 256.359375 106.972656 254.183594 C 95.730469 250.351562 84.871094 245.664062 73.980469 240.945312 C 62.136719 235.816406 50.210938 230.902344 38.308594 225.933594 C 31.429688 223.0625 21.980469 221.226562 16.191406 216.359375 C 3.316406 205.546875 17.945312 182.617188 23.316406 171.175781 C 33.042969 150.480469 40.96875 129.011719 49.761719 107.910156 C 55.378906 94.464844 62.464844 79.761719 79.363281 83.5 C 86.316406 85.023438 96.996094 89.957031 103.355469 84.5625 C 109.96875 78.921875 112.21875 69.304688 114.289062 61.222656 C 115.222656 57.519531 116.0625 53.757812 117.246094 50.117188 C 117.355469 49.796875 117.417969 49.492188 117.445312 49.21875 C 117.308594 48.90625 117.257812 48.546875 117.285156 48.195312 C 116.851562 47.078125 115.515625 46.488281 114.449219 45.109375 C 111.816406 41.730469 110.640625 36.972656 114.363281 33.6875 C 117.75 30.695312 121.988281 31.851562 125.71875 33.886719 C 126.558594 31.222656 127.765625 28.773438 129.121094 26.296875 C 129.117188 25.9375 129.199219 25.59375 129.316406 25.273438 C 129.382812 24.535156 129.800781 23.824219 130.695312 23.433594 C 137.550781 20.449219 147.675781 24.726562 153.757812 27.828125 C 159.730469 30.886719 167.933594 35.382812 167.898438 43.066406 C 167.882812 44.144531 167.273438 44.761719 166.511719 44.964844 C 165.308594 47.113281 164.097656 49.28125 162.894531 51.429688 C 170.152344 53.21875 172.132812 64.683594 163.558594 67.835938 C 161.816406 68.472656 159.863281 68.527344 157.878906 68.242188 C 155.957031 72.878906 154.761719 77.6875 153.0625 82.414062 C 151.378906 87.097656 148.5 91.03125 146.679688 95.585938 C 142.496094 106.097656 154.058594 112.285156 160.992188 117.78125 C 170.082031 125 175.640625 132.941406 171.839844 144.683594 " fill-opacity="1" fill-rule="nonzero"/></g></g></g></g><g clip-path="url(#3949ad0990)"><g clip-path="url(#24f5b3c912)"><g clip-path="url(#c85e6927c9)"><g clip-path="url(#ce5de3b6da)"><path fill="#000000" d="M 161.078125 151.394531 C 160.609375 152.460938 160.179688 153.417969 159.808594 154.269531 C 159.410156 155.101562 158.976562 155.773438 158.640625 156.328125 C 157.96875 157.421875 157.523438 157.984375 157.351562 157.914062 C 157.1875 157.828125 157.328125 157.125 157.714844 155.90625 C 157.890625 155.28125 158.183594 154.574219 158.445312 153.714844 C 158.695312 152.871094 158.988281 151.898438 159.300781 150.828125 C 160.441406 146.59375 161.3125 140.273438 158.265625 134.394531 C 156.808594 131.457031 154.78125 128.976562 152.710938 126.890625 C 151.746094 125.792969 150.644531 124.890625 149.730469 123.960938 C 148.738281 123.085938 147.820312 122.285156 146.972656 121.539062 C 143.546875 118.625 141.339844 116.785156 141.570312 116.480469 C 141.769531 116.199219 144.289062 117.445312 148.113281 120.039062 C 149.042969 120.71875 150.058594 121.464844 151.136719 122.292969 C 152.171875 123.183594 153.351562 124.046875 154.433594 125.160156 C 156.683594 127.257812 158.972656 129.898438 160.628906 133.207031 C 162.308594 136.492188 162.9375 140.105469 162.789062 143.273438 C 162.777344 144.878906 162.441406 146.339844 162.191406 147.710938 C 161.871094 149.058594 161.4375 150.285156 161.078125 151.394531 " fill-opacity="1" fill-rule="nonzero"/></g></g></g></g><g clip-path="url(#dc744258cc)"><g clip-path="url(#523e85248c)"><g clip-path="url(#b8aa8d6728)"><g clip-path="url(#591998fdb1)"><path fill="#000000" d="M 124.242188 236.773438 C 123.925781 237.972656 123.566406 239.296875 122.976562 240.730469 C 122.394531 242.125 121.621094 243.703125 120.15625 244.980469 C 118.707031 246.292969 116.695312 246.953125 114.679688 247.027344 C 113.59375 247.128906 112.78125 246.960938 111.847656 246.917969 C 111.242188 246.832031 110.828125 246.707031 110.3125 246.613281 C 109.804688 246.523438 109.316406 246.382812 108.84375 246.1875 C 104.882812 244.871094 102.105469 241.980469 99.980469 239.5 C 97.855469 236.945312 96.171875 234.589844 94.582031 232.792969 C 93.019531 230.976562 91.554688 229.722656 90.519531 228.917969 C 89.421875 228.140625 88.785156 227.664062 88.855469 227.492188 C 88.933594 227.339844 89.703125 227.46875 90.996094 228.007812 C 92.324219 228.617188 94.09375 229.746094 95.925781 231.5 C 97.777344 233.222656 99.671875 235.527344 101.808594 237.875 C 103.960938 240.210938 106.460938 242.628906 109.699219 243.691406 C 110.089844 243.855469 110.5 243.96875 110.914062 244.039062 C 111.3125 244.125 111.703125 244.207031 112.078125 244.289062 C 112.980469 244.363281 113.96875 244.515625 114.628906 244.4375 C 116.121094 244.402344 117.566406 243.980469 118.585938 243.117188 C 119.652344 242.28125 120.390625 241.046875 120.980469 239.832031 C 121.574219 238.601562 122.027344 237.363281 122.457031 236.214844 C 123.296875 233.914062 124.015625 232 124.6875 230.757812 C 125.328125 229.53125 125.832031 228.902344 125.988281 228.96875 C 126.160156 229.054688 125.992188 229.808594 125.652344 231.121094 C 125.3125 232.460938 124.828125 234.386719 124.242188 236.773438 " fill-opacity="1" fill-rule="nonzero"/></g></g></g></g><g clip-path="url(#a3be9f3034)"><g clip-path="url(#c140279126)"><g clip-path="url(#7fd3f7caca)"><g clip-path="url(#d6dcd9a6aa)"><path fill="#000000" d="M 148.117188 169.632812 C 147.152344 172.273438 145.957031 174.933594 144.828125 177.671875 C 143.65625 180.398438 142.570312 183.246094 141.265625 186.011719 C 138.679688 191.585938 136.070312 197.394531 133.1875 203.207031 C 131.78125 206.105469 130.265625 209.066406 129.023438 211.824219 C 127.851562 214.671875 126.820312 217.636719 125.691406 220.5 C 124.570312 223.382812 123.378906 226.195312 121.988281 228.882812 C 120.542969 231.523438 118.992188 234.15625 116.511719 236.148438 C 115.296875 237.117188 113.707031 237.902344 112.003906 237.921875 C 110.273438 237.933594 108.820312 237.34375 107.480469 236.4375 C 105.34375 234.972656 103.300781 232.871094 101.632812 231.070312 C 98.265625 227.339844 95.285156 223.832031 91.902344 221.5 C 90.222656 220.292969 88.460938 219.21875 86.886719 218.152344 C 85.273438 217.089844 83.796875 216.046875 82.316406 215.277344 C 80.871094 214.429688 79.527344 213.667969 78.277344 212.960938 C 77.652344 212.59375 77.070312 212.253906 76.492188 211.925781 C 75.996094 211.644531 75.347656 211.40625 74.828125 211.15625 C 73.742188 210.671875 72.78125 210.238281 71.941406 209.871094 C 71.105469 209.539062 70.394531 209.257812 69.816406 209.03125 C 68.644531 208.5625 68.054688 208.28125 68.074219 208.195312 C 68.113281 208.105469 68.753906 208.21875 69.972656 208.519531 C 70.578125 208.691406 71.339844 208.902344 72.21875 209.144531 C 73.105469 209.425781 74.082031 209.800781 75.210938 210.199219 C 75.777344 210.417969 76.324219 210.574219 77 210.898438 C 77.605469 211.199219 78.226562 211.503906 78.863281 211.84375 C 80.167969 212.511719 81.582031 213.230469 83.105469 214.003906 C 84.644531 214.75 86.144531 215.738281 87.785156 216.730469 C 89.410156 217.746094 91.152344 218.738281 92.9375 219.945312 C 96.660156 222.367188 99.859375 225.964844 103.242188 229.570312 C 104.101562 230.441406 104.972656 231.394531 105.871094 232.164062 C 106.347656 232.566406 106.722656 233.011719 107.265625 233.390625 C 107.792969 233.78125 108.328125 234.171875 108.875 234.554688 C 109.746094 235.128906 110.917969 235.578125 111.933594 235.527344 C 112.996094 235.507812 114.050781 235 115 234.246094 C 116.929688 232.667969 118.421875 230.230469 119.75 227.707031 C 121.054688 225.160156 122.179688 222.402344 123.265625 219.570312 C 124.367188 216.71875 125.371094 213.800781 126.605469 210.785156 C 127.949219 207.777344 129.394531 205.011719 130.792969 202.0625 C 133.695312 196.25 136.289062 190.480469 138.910156 184.949219 C 140.226562 182.179688 141.300781 179.414062 142.484375 176.738281 C 143.617188 174.027344 144.835938 171.4375 145.824219 168.8125 C 146.796875 166.160156 147.761719 163.582031 148.679688 161.089844 C 149.136719 159.839844 149.597656 158.605469 150.039062 157.398438 L 150.386719 156.488281 L 150.65625 155.625 C 150.855469 155.03125 151.007812 154.453125 151.179688 153.855469 C 151.800781 151.519531 152.027344 149.304688 151.125 147.476562 C 150.253906 145.617188 148.683594 144.027344 147.25 142.496094 C 141.378906 136.476562 135.972656 132.195312 132.09375 129.554688 C 128.234375 126.921875 125.773438 125.863281 125.867188 125.640625 C 125.902344 125.558594 126.535156 125.753906 127.703125 126.207031 C 128.289062 126.421875 129.015625 126.722656 129.832031 127.160156 C 130.660156 127.578125 131.636719 128.050781 132.644531 128.679688 C 136.789062 131.105469 142.402344 135.203125 148.578125 141.179688 C 150.078125 142.707031 151.789062 144.269531 152.984375 146.605469 C 153.5625 147.761719 153.851562 149.164062 153.847656 150.5 C 153.851562 151.847656 153.585938 153.113281 153.296875 154.386719 C 153.136719 155.019531 152.972656 155.644531 152.785156 156.265625 C 152.695312 156.597656 152.617188 156.855469 152.496094 157.246094 L 152.167969 158.148438 C 151.742188 159.378906 151.308594 160.609375 150.867188 161.875 C 149.964844 164.382812 149.050781 166.980469 148.117188 169.632812 " fill-opacity="1" fill-rule="nonzero"/></g></g></g></g><g clip-path="url(#01d77a638a)"><g clip-path="url(#b39185cef1)"><g clip-path="url(#c42ffc9be0)"><g clip-path="url(#bc4240f279)"><path fill="#000000" d="M 103.398438 212.890625 C 108.988281 217.753906 111.339844 221.78125 111.125 221.914062 C 110.765625 222.199219 107.941406 218.679688 102.238281 214.339844 C 99.429688 212.121094 95.777344 209.894531 91.667969 207.550781 C 87.476562 205.324219 82.75 203.109375 77.644531 201.082031 C 67.40625 197.113281 57.761719 194.449219 50.753906 192.660156 C 43.753906 190.847656 39.359375 189.808594 39.429688 189.429688 C 39.5625 189.113281 44.023438 189.476562 51.167969 190.824219 C 58.324219 192.164062 68.179688 194.5625 78.617188 198.613281 C 83.8125 200.6875 88.625 203.019531 92.863281 205.417969 C 97.015625 207.949219 100.679688 210.394531 103.398438 212.890625 " fill-opacity="1" fill-rule="nonzero"/></g></g></g></g><g clip-path="url(#240ba5a9f4)"><g clip-path="url(#be631f1be7)"><g clip-path="url(#3e6cc705ec)"><g clip-path="url(#3360b2db4a)"><path fill="#000000" d="M 91.378906 237.097656 L 88.292969 236.636719 C 83.148438 235.882812 80.585938 234.050781 80.683594 233.855469 C 80.800781 233.574219 82.335938 234.136719 84.976562 234.554688 C 80.113281 231.316406 73.769531 227.121094 66.292969 223.660156 C 60.691406 221.089844 55.105469 219.617188 50.300781 219.429688 C 51.03125 220.027344 51.785156 220.550781 52.511719 221 C 53.875 221.839844 55.15625 222.464844 56.203125 223 C 58.304688 224.070312 59.457031 224.753906 59.371094 224.957031 C 59.289062 225.15625 57.976562 224.851562 55.738281 224.117188 C 54.609375 223.734375 53.226562 223.269531 51.703125 222.496094 C 50.160156 221.742188 48.425781 220.742188 46.898438 219.082031 L 45.480469 217.554688 L 47.601562 217.324219 C 50.460938 217.003906 53.730469 217.144531 57.089844 217.828125 C 60.457031 218.511719 63.949219 219.695312 67.390625 221.25 C 76.796875 225.613281 84.097656 231.28125 88.871094 235.09375 L 91.378906 237.097656 " fill-opacity="1" fill-rule="nonzero"/></g></g></g></g><g clip-path="url(#d1a840e6df)"><g clip-path="url(#63f80e1034)"><g clip-path="url(#8a078aca9f)"><g clip-path="url(#997e1657b4)"><path fill="#000000" d="M 136.953125 105.964844 L 137.023438 107.984375 L 135.1875 107.007812 C 131.476562 105.023438 126.976562 103.289062 122.167969 101.355469 C 116.632812 99.148438 111.441406 96.722656 107.53125 93.695312 L 106.3125 92.746094 L 107.519531 91.855469 C 111.046875 89.261719 112.777344 85.667969 114.152344 83.320312 C 115.492188 80.921875 116.410156 79.625 116.628906 79.714844 C 116.851562 79.824219 116.34375 81.328125 115.359375 83.894531 C 114.835938 85.183594 114.226562 86.765625 113.21875 88.484375 C 112.433594 89.824219 111.421875 91.289062 110.050781 92.625 C 113.664062 94.929688 118.214844 96.917969 123.160156 98.894531 C 127.257812 100.539062 131.1875 102.179688 134.640625 104.027344 C 134.785156 99.601562 135.351562 95.859375 136.019531 93.199219 C 136.933594 90.164062 137.710938 88.535156 137.9375 88.609375 C 138.195312 88.71875 137.882812 90.488281 137.402344 93.46875 C 137.050781 96.503906 136.789062 100.792969 136.953125 105.964844 " fill-opacity="1" fill-rule="nonzero"/></g></g></g></g><g clip-path="url(#576d6231e0)"><g clip-path="url(#c4c3da0730)"><g clip-path="url(#44ce8f13e9)"><g clip-path="url(#b5bdd47c1e)"><path fill="#000000" d="M 118.585938 121.753906 C 118.511719 121.925781 116.097656 121.054688 111.683594 119.671875 C 107.289062 118.296875 100.875 116.335938 92.796875 114.796875 C 88.761719 114.0625 84.289062 113.402344 79.511719 113.292969 C 77.128906 113.25 74.664062 113.339844 72.179688 113.71875 C 69.714844 114.101562 67.195312 114.730469 64.96875 115.960938 L 64.140625 116.425781 L 63.394531 116.953125 C 62.953125 117.210938 62.292969 117.886719 61.929688 118.195312 C 61.496094 118.691406 61.054688 119.191406 60.617188 119.699219 C 60.234375 120.253906 59.855469 120.816406 59.445312 121.367188 C 57.945312 123.671875 56.71875 126.285156 55.585938 128.996094 C 53.351562 134.429688 51.601562 140.335938 49.609375 146.390625 C 47.617188 152.507812 45.027344 158.191406 42.359375 163.566406 C 39.710938 168.929688 37.113281 174.046875 35.011719 179.046875 C 32.894531 184.082031 31.296875 188.925781 30.789062 193.625 C 30.710938 194.753906 30.753906 195.832031 31 196.820312 C 31.285156 197.808594 31.753906 198.667969 32.425781 199.390625 C 33.734375 200.835938 35.714844 201.617188 37.613281 202.152344 C 41.464844 203.164062 45.238281 203.394531 48.5 203.757812 C 51.777344 204.070312 54.625 204.390625 56.929688 204.894531 C 59.222656 205.375 60.960938 206.003906 62.082031 206.570312 C 63.207031 207.128906 63.671875 207.554688 63.644531 207.617188 C 63.550781 207.808594 61.300781 206.5 56.742188 205.902344 C 54.480469 205.585938 51.679688 205.40625 48.394531 205.226562 C 45.109375 205.007812 41.320312 204.9375 37.132812 203.957031 C 36.085938 203.6875 35.011719 203.375 33.953125 202.871094 C 32.898438 202.390625 31.828125 201.742188 30.941406 200.789062 C 30.03125 199.871094 29.335938 198.679688 28.957031 197.402344 C 28.59375 196.105469 28.527344 194.773438 28.605469 193.460938 C 28.757812 192.117188 28.84375 191.007812 29.148438 189.679688 C 29.375 188.355469 29.71875 187.089844 30.066406 185.808594 C 30.824219 183.265625 31.695312 180.691406 32.765625 178.125 C 34.84375 172.976562 37.4375 167.789062 40.03125 162.425781 C 41.320312 159.738281 42.625 157.019531 43.820312 154.214844 C 44.410156 152.835938 44.976562 151.390625 45.550781 149.929688 C 46.105469 148.496094 46.589844 147.046875 47.101562 145.542969 C 49.085938 139.566406 50.847656 133.59375 53.199219 127.996094 C 54.375 125.1875 55.683594 122.472656 57.347656 119.984375 C 57.761719 119.359375 58.230469 118.757812 58.652344 118.152344 C 59.136719 117.566406 59.65625 117.019531 60.136719 116.460938 C 60.847656 115.859375 61.152344 115.511719 61.886719 115.011719 L 62.847656 114.359375 L 63.824219 113.8125 C 66.429688 112.421875 69.199219 111.792969 71.851562 111.410156 C 74.507812 111.050781 77.101562 111.015625 79.582031 111.109375 C 84.550781 111.3125 89.082031 112.085938 93.175781 112.964844 C 101.328125 114.769531 107.707031 117.003906 112.039062 118.699219 C 116.367188 120.402344 118.648438 121.597656 118.585938 121.753906 " fill-opacity="1" fill-rule="nonzero"/></g></g></g></g><g clip-path="url(#6262d60cc3)"><g clip-path="url(#47e0e497a1)"><g clip-path="url(#6eb7984172)"><g clip-path="url(#18a1c4f772)"><path fill="#000000" d="M 109.648438 112.226562 C 110.664062 112.636719 111.21875 112.945312 111.160156 113.128906 C 111.085938 113.300781 110.46875 113.316406 109.40625 113.226562 C 108.324219 113.082031 106.773438 112.894531 104.859375 112.644531 C 101.050781 112.101562 95.738281 111.546875 89.863281 110.136719 C 88.695312 109.800781 87.539062 109.46875 86.421875 109.140625 C 85.324219 108.730469 84.253906 108.324219 83.21875 107.921875 L 79.9375 106.675781 L 83.296875 105.574219 C 87.324219 104.265625 91.042969 103.371094 93.738281 103.320312 C 96.546875 103.253906 97.941406 103.972656 97.921875 104.199219 C 97.902344 104.535156 96.257812 104.371094 93.910156 104.875 C 92.171875 105.203125 90.003906 105.859375 87.488281 106.726562 C 88.46875 107.007812 89.46875 107.289062 90.496094 107.582031 C 96.136719 108.914062 101.453125 109.789062 105.21875 110.804688 C 107.121094 111.308594 108.632812 111.785156 109.648438 112.226562 " fill-opacity="1" fill-rule="nonzero"/></g></g></g></g><g clip-path="url(#60b678d6a0)"><g clip-path="url(#86b2839084)"><g clip-path="url(#bf614772d9)"><g clip-path="url(#4914862624)"><path fill="#000000" d="M 58.980469 214.253906 C 64.550781 216.964844 67.886719 218.785156 67.757812 219.101562 C 67.609375 219.453125 63.964844 218.234375 58.226562 215.960938 C 55.367188 214.855469 51.957031 213.511719 48.136719 212.269531 C 44.3125 211.019531 40.039062 209.832031 35.527344 209.453125 C 34.664062 209.335938 33.8125 209.390625 32.964844 209.335938 C 32.125 209.328125 31.304688 209.429688 30.488281 209.460938 L 30.386719 209.464844 C 30.332031 209.5 30.058594 209.636719 29.839844 209.835938 C 29.484375 210.167969 29.125 210.492188 28.773438 210.808594 C 27.980469 211.472656 27.109375 212.390625 25.546875 212.566406 C 24.804688 212.636719 24.011719 212.417969 23.484375 212.0625 C 22.871094 211.742188 22.519531 211.320312 22.117188 210.910156 C 21.792969 210.492188 21.472656 210.085938 21.21875 209.671875 C 21.007812 209.296875 20.792969 208.898438 20.582031 208.523438 C 19.691406 207 19.6875 205.546875 19.707031 204.28125 C 19.785156 203.003906 19.980469 201.84375 20.207031 200.761719 C 20.691406 198.636719 21.292969 196.867188 21.824219 195.421875 C 22.921875 192.53125 23.6875 190.964844 23.917969 191.027344 C 24.164062 191.132812 23.800781 192.882812 23.125 195.8125 C 22.78125 197.289062 22.363281 199.0625 22.066406 201.121094 C 21.925781 202.132812 21.820312 203.207031 21.820312 204.308594 C 21.847656 205.378906 22.027344 206.523438 22.503906 207.253906 L 22.570312 207.34375 C 22.777344 207.691406 22.992188 208.027344 23.207031 208.378906 C 23.421875 208.707031 23.679688 208.992188 23.914062 209.316406 C 24.453125 209.863281 24.953125 210.121094 25.3125 210.070312 C 25.703125 210.078125 26.375 209.5625 27.03125 208.917969 C 27.367188 208.617188 27.738281 208.246094 28.171875 207.863281 C 28.40625 207.671875 28.628906 207.460938 28.976562 207.265625 C 29.152344 207.171875 29.316406 207.070312 29.539062 206.996094 C 29.804688 206.914062 30.078125 206.875 30.359375 206.855469 C 31.210938 206.804688 32.0625 206.703125 32.953125 206.695312 C 33.867188 206.738281 34.816406 206.691406 35.734375 206.808594 C 40.632812 207.238281 45.050781 208.550781 48.921875 209.964844 C 52.8125 211.371094 56.179688 212.914062 58.980469 214.253906 " fill-opacity="1" fill-rule="nonzero"/></g></g></g></g><g clip-path="url(#9e6363e918)"><g clip-path="url(#c42f1dd85c)"><g clip-path="url(#a2d67ccbfb)"><g clip-path="url(#9d3f86f180)"><path fill="#000000" d="M 86.367188 94.277344 C 86.371094 94.671875 84.269531 94.945312 80.953125 95.347656 C 77.683594 95.820312 73.050781 96.316406 68.867188 98.6875 C 66.804688 99.863281 65.109375 101.433594 63.777344 103.085938 C 63.070312 103.875 62.53125 104.761719 61.957031 105.519531 C 61.464844 106.339844 60.960938 107.09375 60.542969 107.804688 C 59.722656 109.25 59.0625 110.433594 58.597656 111.261719 C 58.105469 112.070312 57.753906 112.503906 57.582031 112.433594 C 57.40625 112.359375 57.449219 111.8125 57.640625 110.878906 C 57.804688 109.941406 58.226562 108.625 58.871094 106.988281 C 59.195312 106.171875 59.636719 105.316406 60.085938 104.402344 C 60.621094 103.523438 61.125 102.523438 61.855469 101.589844 C 63.203125 99.6875 65.128906 97.769531 67.550781 96.398438 C 69.953125 94.992188 72.515625 94.304688 74.800781 93.914062 C 77.082031 93.515625 79.132812 93.484375 80.851562 93.472656 C 84.277344 93.539062 86.359375 93.933594 86.367188 94.277344 " fill-opacity="1" fill-rule="nonzero"/></g></g></g></g><g clip-path="url(#a969ca7a7d)"><g clip-path="url(#b4cfe4640a)"><g clip-path="url(#7aa08a73bf)"><g clip-path="url(#4d9deda0a3)"><path fill="#000000" d="M 50.476562 130.917969 C 48.527344 136.546875 45.140625 144.023438 41.371094 152.261719 C 33.597656 168.535156 27.332031 181.824219 26.613281 181.523438 C 25.996094 181.25 31.167969 167.519531 38.992188 151.144531 C 46.742188 134.820312 52.519531 121.425781 53.292969 121.691406 C 53.628906 121.832031 52.527344 125.351562 50.476562 130.917969 " fill-opacity="1" fill-rule="nonzero"/></g></g></g></g><g clip-path="url(#1d7013656a)"><g clip-path="url(#33090ce811)"><g clip-path="url(#65034c9a47)"><g clip-path="url(#57dd483500)"><path fill="#000000" d="M 137.496094 27.261719 C 145.351562 31.847656 153.289062 36.25 161.996094 38.917969 C 158.035156 33.042969 145.46875 27.871094 137.496094 27.261719 Z M 139.273438 79 C 141.949219 74.132812 144.539062 69.214844 147.511719 64.503906 C 140.699219 61.105469 134.074219 57.417969 127.21875 54.144531 C 125.609375 60.269531 124.582031 66.527344 123.386719 72.757812 C 128.542969 74.898438 133.921875 77.09375 139.273438 79 Z M 158.246094 50.171875 C 159.464844 48.023438 160.652344 45.871094 161.847656 43.738281 C 151.34375 40.65625 142 35.28125 132.558594 29.769531 C 131.414062 31.90625 130.386719 34.121094 129.839844 36.492188 C 129.851562 36.496094 129.867188 36.503906 129.894531 36.515625 C 138.996094 42.917969 147.964844 47.167969 158.246094 50.171875 Z M 160.96875 63.558594 C 164.882812 62.882812 165.191406 59.578125 162.84375 57.039062 C 160.953125 54.992188 156.847656 54.003906 154.28125 53.292969 C 145.003906 50.765625 137.078125 47.316406 129.15625 41.746094 C 126.632812 39.976562 122.597656 36.511719 119.261719 36.441406 C 112.21875 36.308594 119.230469 43.363281 119.734375 43.828125 C 120.75 44.769531 121.8125 45.632812 122.378906 46.835938 C 132.148438 50.9375 141.121094 56.480469 150.753906 60.878906 C 153.714844 62.238281 157.605469 64.144531 160.96875 63.558594 Z M 131.996094 219.414062 C 141.78125 196.261719 154.847656 174.632812 164.347656 151.363281 C 167.710938 143.128906 171.300781 134.667969 164.382812 127.257812 C 158.753906 121.238281 151.574219 117.03125 145.777344 111.164062 C 141.066406 106.386719 139.109375 100.101562 142.34375 93.777344 C 144.597656 89.402344 147.222656 85.347656 148.722656 80.601562 C 150.191406 76.042969 151.5 71.492188 153.316406 67.0625 C 152.78125 66.878906 152.261719 66.695312 151.757812 66.484375 C 151.746094 66.511719 151.734375 66.539062 151.722656 66.566406 C 148.335938 71.824219 145.542969 77.421875 142.464844 82.851562 C 141.628906 84.308594 139.898438 84.398438 138.804688 83.722656 C 138.589844 83.714844 138.367188 83.667969 138.132812 83.597656 C 132.078125 81.46875 120.09375 76.484375 120.09375 76.484375 C 119.363281 76.175781 118.941406 75.679688 118.753906 75.109375 C 118.46875 74.699219 118.328125 74.167969 118.453125 73.503906 C 119.875 66.363281 121.046875 59.203125 122.9375 52.171875 C 122.65625 52.054688 122.402344 51.949219 122.125 51.832031 C 121.394531 54.113281 120.269531 56.566406 119.886719 58.074219 C 118.871094 62.105469 117.917969 66.175781 116.644531 70.128906 C 114.328125 77.378906 111.375 84.777344 104.851562 89.214844 C 92.664062 97.484375 73.96875 79.410156 64.070312 91.601562 C 57.101562 100.175781 53.683594 110.878906 49.683594 121.019531 C 45.441406 131.796875 40.816406 142.429688 36.351562 153.121094 C 31.855469 163.894531 26.636719 174.351562 22.101562 185.101562 C 18.066406 194.648438 10.144531 209.503906 23.242188 214.953125 C 44.394531 223.738281 65.605469 232.402344 86.699219 241.3125 C 93.066406 243.988281 99.464844 246.660156 106 248.894531 C 111.203125 250.660156 116.976562 253.921875 120.953125 247.859375 C 126.535156 239.328125 128.078125 228.71875 131.996094 219.414062 Z M 171.839844 144.683594 C 165.058594 165.675781 153.242188 184.910156 143.777344 204.730469 C 139.410156 213.898438 135.144531 223.132812 132.164062 232.875 C 130.199219 239.292969 128.25 248.136719 122.90625 252.773438 C 117.464844 257.507812 113.378906 256.359375 106.972656 254.183594 C 95.730469 250.351562 84.871094 245.664062 73.980469 240.945312 C 62.136719 235.816406 50.210938 230.902344 38.308594 225.933594 C 31.429688 223.0625 21.980469 221.226562 16.191406 216.359375 C 3.316406 205.546875 17.945312 182.617188 23.316406 171.175781 C 33.042969 150.480469 40.96875 129.011719 49.761719 107.910156 C 55.378906 94.464844 62.464844 79.761719 79.363281 83.5 C 86.316406 85.023438 96.996094 89.957031 103.355469 84.5625 C 109.96875 78.921875 112.21875 69.304688 114.289062 61.222656 C 115.222656 57.519531 116.0625 53.757812 117.246094 50.117188 C 117.355469 49.796875 117.417969 49.492188 117.445312 49.21875 C 117.308594 48.90625 117.257812 48.546875 117.285156 48.195312 C 116.851562 47.078125 115.515625 46.488281 114.449219 45.109375 C 111.816406 41.730469 110.640625 36.972656 114.363281 33.6875 C 117.75 30.695312 121.988281 31.851562 125.71875 33.886719 C 126.558594 31.222656 127.765625 28.773438 129.121094 26.296875 C 129.117188 25.9375 129.199219 25.59375 129.316406 25.273438 C 129.382812 24.535156 129.800781 23.824219 130.695312 23.433594 C 137.550781 20.449219 147.675781 24.726562 153.757812 27.828125 C 159.730469 30.886719 167.933594 35.382812 167.898438 43.066406 C 167.882812 44.144531 167.273438 44.761719 166.511719 44.964844 C 165.308594 47.113281 164.097656 49.28125 162.894531 51.429688 C 170.152344 53.21875 172.132812 64.683594 163.558594 67.835938 C 161.816406 68.472656 159.863281 68.527344 157.878906 68.242188 C 155.957031 72.878906 154.761719 77.6875 153.0625 82.414062 C 151.378906 87.097656 148.5 91.03125 146.679688 95.585938 C 142.496094 106.097656 154.058594 112.285156 160.992188 117.78125 C 170.082031 125 175.640625 132.941406 171.839844 144.683594 " fill-opacity="1" fill-rule="nonzero"/></g></g></g></g><g clip-path="url(#a1ca8ac3a1)"><g clip-path="url(#34179d1c44)"><g clip-path="url(#67d1f12ddc)"><g clip-path="url(#dba4ee1446)"><path fill="#000000" d="M 161.078125 151.394531 C 160.609375 152.460938 160.179688 153.417969 159.808594 154.269531 C 159.410156 155.101562 158.976562 155.773438 158.640625 156.328125 C 157.96875 157.421875 157.523438 157.984375 157.351562 157.914062 C 157.1875 157.828125 157.328125 157.125 157.714844 155.90625 C 157.890625 155.28125 158.183594 154.574219 158.445312 153.714844 C 158.695312 152.871094 158.988281 151.898438 159.300781 150.828125 C 160.441406 146.59375 161.3125 140.273438 158.265625 134.394531 C 156.808594 131.457031 154.78125 128.976562 152.710938 126.890625 C 151.746094 125.792969 150.644531 124.890625 149.730469 123.960938 C 148.738281 123.085938 147.820312 122.285156 146.972656 121.539062 C 143.546875 118.625 141.339844 116.785156 141.570312 116.480469 C 141.769531 116.199219 144.289062 117.445312 148.113281 120.039062 C 149.042969 120.71875 150.058594 121.464844 151.136719 122.292969 C 152.171875 123.183594 153.351562 124.046875 154.433594 125.160156 C 156.683594 127.257812 158.972656 129.898438 160.628906 133.207031 C 162.308594 136.492188 162.9375 140.105469 162.789062 143.273438 C 162.777344 144.878906 162.441406 146.339844 162.191406 147.710938 C 161.871094 149.058594 161.4375 150.285156 161.078125 151.394531 " fill-opacity="1" fill-rule="nonzero"/></g></g></g></g><g clip-path="url(#029a83404f)"><g clip-path="url(#c7f7d8056e)"><g clip-path="url(#d7d7c16dad)"><g clip-path="url(#c1124a3815)"><path fill="#000000" d="M 124.242188 236.773438 C 123.925781 237.972656 123.566406 239.296875 122.976562 240.730469 C 122.394531 242.125 121.621094 243.703125 120.15625 244.980469 C 118.707031 246.292969 116.695312 246.953125 114.679688 247.027344 C 113.59375 247.128906 112.78125 246.960938 111.847656 246.917969 C 111.242188 246.832031 110.828125 246.707031 110.3125 246.613281 C 109.804688 246.523438 109.316406 246.382812 108.84375 246.1875 C 104.882812 244.871094 102.105469 241.980469 99.980469 239.5 C 97.855469 236.945312 96.171875 234.589844 94.582031 232.792969 C 93.019531 230.976562 91.554688 229.722656 90.519531 228.917969 C 89.421875 228.140625 88.785156 227.664062 88.855469 227.492188 C 88.933594 227.339844 89.703125 227.46875 90.996094 228.007812 C 92.324219 228.617188 94.09375 229.746094 95.925781 231.5 C 97.777344 233.222656 99.671875 235.527344 101.808594 237.875 C 103.960938 240.210938 106.460938 242.628906 109.699219 243.691406 C 110.089844 243.855469 110.5 243.96875 110.914062 244.039062 C 111.3125 244.125 111.703125 244.207031 112.078125 244.289062 C 112.980469 244.363281 113.96875 244.515625 114.628906 244.4375 C 116.121094 244.402344 117.566406 243.980469 118.585938 243.117188 C 119.652344 242.28125 120.390625 241.046875 120.980469 239.832031 C 121.574219 238.601562 122.027344 237.363281 122.457031 236.214844 C 123.296875 233.914062 124.015625 232 124.6875 230.757812 C 125.328125 229.53125 125.832031 228.902344 125.988281 228.96875 C 126.160156 229.054688 125.992188 229.808594 125.652344 231.121094 C 125.3125 232.460938 124.828125 234.386719 124.242188 236.773438 " fill-opacity="1" fill-rule="nonzero"/></g></g></g></g><g clip-path="url(#4fbf9c8316)"><g clip-path="url(#9e936dbe84)"><g clip-path="url(#751da2d9ba)"><g clip-path="url(#91f8a9011e)"><path fill="#000000" d="M 148.117188 169.632812 C 147.152344 172.273438 145.957031 174.933594 144.828125 177.671875 C 143.65625 180.398438 142.570312 183.246094 141.265625 186.011719 C 138.679688 191.585938 136.070312 197.394531 133.1875 203.207031 C 131.78125 206.105469 130.265625 209.066406 129.023438 211.824219 C 127.851562 214.671875 126.820312 217.636719 125.691406 220.5 C 124.570312 223.382812 123.378906 226.195312 121.988281 228.882812 C 120.542969 231.523438 118.992188 234.15625 116.511719 236.148438 C 115.296875 237.117188 113.707031 237.902344 112.003906 237.921875 C 110.273438 237.933594 108.820312 237.34375 107.480469 236.4375 C 105.34375 234.972656 103.300781 232.871094 101.632812 231.070312 C 98.265625 227.339844 95.285156 223.832031 91.902344 221.5 C 90.222656 220.292969 88.460938 219.21875 86.886719 218.152344 C 85.273438 217.089844 83.796875 216.046875 82.316406 215.277344 C 80.871094 214.429688 79.527344 213.667969 78.277344 212.960938 C 77.652344 212.59375 77.070312 212.253906 76.492188 211.925781 C 75.996094 211.644531 75.347656 211.40625 74.828125 211.15625 C 73.742188 210.671875 72.78125 210.238281 71.941406 209.871094 C 71.105469 209.539062 70.394531 209.257812 69.816406 209.03125 C 68.644531 208.5625 68.054688 208.28125 68.074219 208.195312 C 68.113281 208.105469 68.753906 208.21875 69.972656 208.519531 C 70.578125 208.691406 71.339844 208.902344 72.21875 209.144531 C 73.105469 209.425781 74.082031 209.800781 75.210938 210.199219 C 75.777344 210.417969 76.324219 210.574219 77 210.898438 C 77.605469 211.199219 78.226562 211.503906 78.863281 211.84375 C 80.167969 212.511719 81.582031 213.230469 83.105469 214.003906 C 84.644531 214.75 86.144531 215.738281 87.785156 216.730469 C 89.410156 217.746094 91.152344 218.738281 92.9375 219.945312 C 96.660156 222.367188 99.859375 225.964844 103.242188 229.570312 C 104.101562 230.441406 104.972656 231.394531 105.871094 232.164062 C 106.347656 232.566406 106.722656 233.011719 107.265625 233.390625 C 107.792969 233.78125 108.328125 234.171875 108.875 234.554688 C 109.746094 235.128906 110.917969 235.578125 111.933594 235.527344 C 112.996094 235.507812 114.050781 235 115 234.246094 C 116.929688 232.667969 118.421875 230.230469 119.75 227.707031 C 121.054688 225.160156 122.179688 222.402344 123.265625 219.570312 C 124.367188 216.71875 125.371094 213.800781 126.605469 210.785156 C 127.949219 207.777344 129.394531 205.011719 130.792969 202.0625 C 133.695312 196.25 136.289062 190.480469 138.910156 184.949219 C 140.226562 182.179688 141.300781 179.414062 142.484375 176.738281 C 143.617188 174.027344 144.835938 171.4375 145.824219 168.8125 C 146.796875 166.160156 147.761719 163.582031 148.679688 161.089844 C 149.136719 159.839844 149.597656 158.605469 150.039062 157.398438 L 150.386719 156.488281 L 150.65625 155.625 C 150.855469 155.03125 151.007812 154.453125 151.179688 153.855469 C 151.800781 151.519531 152.027344 149.304688 151.125 147.476562 C 150.253906 145.617188 148.683594 144.027344 147.25 142.496094 C 141.378906 136.476562 135.972656 132.195312 132.09375 129.554688 C 128.234375 126.921875 125.773438 125.863281 125.867188 125.640625 C 125.902344 125.558594 126.535156 125.753906 127.703125 126.207031 C 128.289062 126.421875 129.015625 126.722656 129.832031 127.160156 C 130.660156 127.578125 131.636719 128.050781 132.644531 128.679688 C 136.789062 131.105469 142.402344 135.203125 148.578125 141.179688 C 150.078125 142.707031 151.789062 144.269531 152.984375 146.605469 C 153.5625 147.761719 153.851562 149.164062 153.847656 150.5 C 153.851562 151.847656 153.585938 153.113281 153.296875 154.386719 C 153.136719 155.019531 152.972656 155.644531 152.785156 156.265625 C 152.695312 156.597656 152.617188 156.855469 152.496094 157.246094 L 152.167969 158.148438 C 151.742188 159.378906 151.308594 160.609375 150.867188 161.875 C 149.964844 164.382812 149.050781 166.980469 148.117188 169.632812 " fill-opacity="1" fill-rule="nonzero"/></g></g></g></g><g clip-path="url(#1605350d91)"><g clip-path="url(#f6dae600ad)"><g clip-path="url(#f8040f4f1d)"><g clip-path="url(#724f07b790)"><path fill="#000000" d="M 103.398438 212.890625 C 108.988281 217.753906 111.339844 221.78125 111.125 221.914062 C 110.765625 222.199219 107.941406 218.679688 102.238281 214.339844 C 99.429688 212.121094 95.777344 209.894531 91.667969 207.550781 C 87.476562 205.324219 82.75 203.109375 77.644531 201.082031 C 67.40625 197.113281 57.761719 194.449219 50.753906 192.660156 C 43.753906 190.847656 39.359375 189.808594 39.429688 189.429688 C 39.5625 189.113281 44.023438 189.476562 51.167969 190.824219 C 58.324219 192.164062 68.179688 194.5625 78.617188 198.613281 C 83.8125 200.6875 88.625 203.019531 92.863281 205.417969 C 97.015625 207.949219 100.679688 210.394531 103.398438 212.890625 " fill-opacity="1" fill-rule="nonzero"/></g></g></g></g><g clip-path="url(#91545294d2)"><g clip-path="url(#cd20326cb9)"><g clip-path="url(#656ec9d6f5)"><g clip-path="url(#dd43b7a39a)"><path fill="#000000" d="M 91.378906 237.097656 L 88.292969 236.636719 C 83.148438 235.882812 80.585938 234.050781 80.683594 233.855469 C 80.800781 233.574219 82.335938 234.136719 84.976562 234.554688 C 80.113281 231.316406 73.769531 227.121094 66.292969 223.660156 C 60.691406 221.089844 55.105469 219.617188 50.300781 219.429688 C 51.03125 220.027344 51.785156 220.550781 52.511719 221 C 53.875 221.839844 55.15625 222.464844 56.203125 223 C 58.304688 224.070312 59.457031 224.753906 59.371094 224.957031 C 59.289062 225.15625 57.976562 224.851562 55.738281 224.117188 C 54.609375 223.734375 53.226562 223.269531 51.703125 222.496094 C 50.160156 221.742188 48.425781 220.742188 46.898438 219.082031 L 45.480469 217.554688 L 47.601562 217.324219 C 50.460938 217.003906 53.730469 217.144531 57.089844 217.828125 C 60.457031 218.511719 63.949219 219.695312 67.390625 221.25 C 76.796875 225.613281 84.097656 231.28125 88.871094 235.09375 L 91.378906 237.097656 " fill-opacity="1" fill-rule="nonzero"/></g></g></g></g><g clip-path="url(#934a4fa625)"><g clip-path="url(#5e805ee871)"><g clip-path="url(#ae9d79e644)"><g clip-path="url(#7f97529244)"><path fill="#000000" d="M 136.953125 105.964844 L 137.023438 107.984375 L 135.1875 107.007812 C 131.476562 105.023438 126.976562 103.289062 122.167969 101.355469 C 116.632812 99.148438 111.441406 96.722656 107.53125 93.695312 L 106.3125 92.746094 L 107.519531 91.855469 C 111.046875 89.261719 112.777344 85.667969 114.152344 83.320312 C 115.492188 80.921875 116.410156 79.625 116.628906 79.714844 C 116.851562 79.824219 116.34375 81.328125 115.359375 83.894531 C 114.835938 85.183594 114.226562 86.765625 113.21875 88.484375 C 112.433594 89.824219 111.421875 91.289062 110.050781 92.625 C 113.664062 94.929688 118.214844 96.917969 123.160156 98.894531 C 127.257812 100.539062 131.1875 102.179688 134.640625 104.027344 C 134.785156 99.601562 135.351562 95.859375 136.019531 93.199219 C 136.933594 90.164062 137.710938 88.535156 137.9375 88.609375 C 138.195312 88.71875 137.882812 90.488281 137.402344 93.46875 C 137.050781 96.503906 136.789062 100.792969 136.953125 105.964844 " fill-opacity="1" fill-rule="nonzero"/></g></g></g></g><g clip-path="url(#f747834856)"><g clip-path="url(#32cd3ffab1)"><g clip-path="url(#988df0e83f)"><g clip-path="url(#2b7d3f8a1b)"><path fill="#000000" d="M 118.585938 121.753906 C 118.511719 121.925781 116.097656 121.054688 111.683594 119.671875 C 107.289062 118.296875 100.875 116.335938 92.796875 114.796875 C 88.761719 114.0625 84.289062 113.402344 79.511719 113.292969 C 77.128906 113.25 74.664062 113.339844 72.179688 113.71875 C 69.714844 114.101562 67.195312 114.730469 64.96875 115.960938 L 64.140625 116.425781 L 63.394531 116.953125 C 62.953125 117.210938 62.292969 117.886719 61.929688 118.195312 C 61.496094 118.691406 61.054688 119.191406 60.617188 119.699219 C 60.234375 120.253906 59.855469 120.816406 59.445312 121.367188 C 57.945312 123.671875 56.71875 126.285156 55.585938 128.996094 C 53.351562 134.429688 51.601562 140.335938 49.609375 146.390625 C 47.617188 152.507812 45.027344 158.191406 42.359375 163.566406 C 39.710938 168.929688 37.113281 174.046875 35.011719 179.046875 C 32.894531 184.082031 31.296875 188.925781 30.789062 193.625 C 30.710938 194.753906 30.753906 195.832031 31 196.820312 C 31.285156 197.808594 31.753906 198.667969 32.425781 199.390625 C 33.734375 200.835938 35.714844 201.617188 37.613281 202.152344 C 41.464844 203.164062 45.238281 203.394531 48.5 203.757812 C 51.777344 204.070312 54.625 204.390625 56.929688 204.894531 C 59.222656 205.375 60.960938 206.003906 62.082031 206.570312 C 63.207031 207.128906 63.671875 207.554688 63.644531 207.617188 C 63.550781 207.808594 61.300781 206.5 56.742188 205.902344 C 54.480469 205.585938 51.679688 205.40625 48.394531 205.226562 C 45.109375 205.007812 41.320312 204.9375 37.132812 203.957031 C 36.085938 203.6875 35.011719 203.375 33.953125 202.871094 C 32.898438 202.390625 31.828125 201.742188 30.941406 200.789062 C 30.03125 199.871094 29.335938 198.679688 28.957031 197.402344 C 28.59375 196.105469 28.527344 194.773438 28.605469 193.460938 C 28.757812 192.117188 28.84375 191.007812 29.148438 189.679688 C 29.375 188.355469 29.71875 187.089844 30.066406 185.808594 C 30.824219 183.265625 31.695312 180.691406 32.765625 178.125 C 34.84375 172.976562 37.4375 167.789062 40.03125 162.425781 C 41.320312 159.738281 42.625 157.019531 43.820312 154.214844 C 44.410156 152.835938 44.976562 151.390625 45.550781 149.929688 C 46.105469 148.496094 46.589844 147.046875 47.101562 145.542969 C 49.085938 139.566406 50.847656 133.59375 53.199219 127.996094 C 54.375 125.1875 55.683594 122.472656 57.347656 119.984375 C 57.761719 119.359375 58.230469 118.757812 58.652344 118.152344 C 59.136719 117.566406 59.65625 117.019531 60.136719 116.460938 C 60.847656 115.859375 61.152344 115.511719 61.886719 115.011719 L 62.847656 114.359375 L 63.824219 113.8125 C 66.429688 112.421875 69.199219 111.792969 71.851562 111.410156 C 74.507812 111.050781 77.101562 111.015625 79.582031 111.109375 C 84.550781 111.3125 89.082031 112.085938 93.175781 112.964844 C 101.328125 114.769531 107.707031 117.003906 112.039062 118.699219 C 116.367188 120.402344 118.648438 121.597656 118.585938 121.753906 " fill-opacity="1" fill-rule="nonzero"/></g></g></g></g><g clip-path="url(#75a804f946)"><g clip-path="url(#c6e10cc604)"><g clip-path="url(#42051f13f2)"><g clip-path="url(#af81af7166)"><path fill="#000000" d="M 109.648438 112.226562 C 110.664062 112.636719 111.21875 112.945312 111.160156 113.128906 C 111.085938 113.300781 110.46875 113.316406 109.40625 113.226562 C 108.324219 113.082031 106.773438 112.894531 104.859375 112.644531 C 101.050781 112.101562 95.738281 111.546875 89.863281 110.136719 C 88.695312 109.800781 87.539062 109.46875 86.421875 109.140625 C 85.324219 108.730469 84.253906 108.324219 83.21875 107.921875 L 79.9375 106.675781 L 83.296875 105.574219 C 87.324219 104.265625 91.042969 103.371094 93.738281 103.320312 C 96.546875 103.253906 97.941406 103.972656 97.921875 104.199219 C 97.902344 104.535156 96.257812 104.371094 93.910156 104.875 C 92.171875 105.203125 90.003906 105.859375 87.488281 106.726562 C 88.46875 107.007812 89.46875 107.289062 90.496094 107.582031 C 96.136719 108.914062 101.453125 109.789062 105.21875 110.804688 C 107.121094 111.308594 108.632812 111.785156 109.648438 112.226562 " fill-opacity="1" fill-rule="nonzero"/></g></g></g></g><g clip-path="url(#495fb7b7c9)"><g clip-path="url(#28779f99e5)"><g clip-path="url(#3deb3077fb)"><g clip-path="url(#f353ec6585)"><path fill="#000000" d="M 58.980469 214.253906 C 64.550781 216.964844 67.886719 218.785156 67.757812 219.101562 C 67.609375 219.453125 63.964844 218.234375 58.226562 215.960938 C 55.367188 214.855469 51.957031 213.511719 48.136719 212.269531 C 44.3125 211.019531 40.039062 209.832031 35.527344 209.453125 C 34.664062 209.335938 33.8125 209.390625 32.964844 209.335938 C 32.125 209.328125 31.304688 209.429688 30.488281 209.460938 L 30.386719 209.464844 C 30.332031 209.5 30.058594 209.636719 29.839844 209.835938 C 29.484375 210.167969 29.125 210.492188 28.773438 210.808594 C 27.980469 211.472656 27.109375 212.390625 25.546875 212.566406 C 24.804688 212.636719 24.011719 212.417969 23.484375 212.0625 C 22.871094 211.742188 22.519531 211.320312 22.117188 210.910156 C 21.792969 210.492188 21.472656 210.085938 21.21875 209.671875 C 21.007812 209.296875 20.792969 208.898438 20.582031 208.523438 C 19.691406 207 19.6875 205.546875 19.707031 204.28125 C 19.785156 203.003906 19.980469 201.84375 20.207031 200.761719 C 20.691406 198.636719 21.292969 196.867188 21.824219 195.421875 C 22.921875 192.53125 23.6875 190.964844 23.917969 191.027344 C 24.164062 191.132812 23.800781 192.882812 23.125 195.8125 C 22.78125 197.289062 22.363281 199.0625 22.066406 201.121094 C 21.925781 202.132812 21.820312 203.207031 21.820312 204.308594 C 21.847656 205.378906 22.027344 206.523438 22.503906 207.253906 L 22.570312 207.34375 C 22.777344 207.691406 22.992188 208.027344 23.207031 208.378906 C 23.421875 208.707031 23.679688 208.992188 23.914062 209.316406 C 24.453125 209.863281 24.953125 210.121094 25.3125 210.070312 C 25.703125 210.078125 26.375 209.5625 27.03125 208.917969 C 27.367188 208.617188 27.738281 208.246094 28.171875 207.863281 C 28.40625 207.671875 28.628906 207.460938 28.976562 207.265625 C 29.152344 207.171875 29.316406 207.070312 29.539062 206.996094 C 29.804688 206.914062 30.078125 206.875 30.359375 206.855469 C 31.210938 206.804688 32.0625 206.703125 32.953125 206.695312 C 33.867188 206.738281 34.816406 206.691406 35.734375 206.808594 C 40.632812 207.238281 45.050781 208.550781 48.921875 209.964844 C 52.8125 211.371094 56.179688 212.914062 58.980469 214.253906 " fill-opacity="1" fill-rule="nonzero"/></g></g></g></g><g clip-path="url(#8c9cf4c805)"><g clip-path="url(#2f2cfe6875)"><g clip-path="url(#4dc17d1d76)"><g clip-path="url(#2e03ca98f1)"><path fill="#000000" d="M 86.367188 94.277344 C 86.371094 94.671875 84.269531 94.945312 80.953125 95.347656 C 77.683594 95.820312 73.050781 96.316406 68.867188 98.6875 C 66.804688 99.863281 65.109375 101.433594 63.777344 103.085938 C 63.070312 103.875 62.53125 104.761719 61.957031 105.519531 C 61.464844 106.339844 60.960938 107.09375 60.542969 107.804688 C 59.722656 109.25 59.0625 110.433594 58.597656 111.261719 C 58.105469 112.070312 57.753906 112.503906 57.582031 112.433594 C 57.40625 112.359375 57.449219 111.8125 57.640625 110.878906 C 57.804688 109.941406 58.226562 108.625 58.871094 106.988281 C 59.195312 106.171875 59.636719 105.316406 60.085938 104.402344 C 60.621094 103.523438 61.125 102.523438 61.855469 101.589844 C 63.203125 99.6875 65.128906 97.769531 67.550781 96.398438 C 69.953125 94.992188 72.515625 94.304688 74.800781 93.914062 C 77.082031 93.515625 79.132812 93.484375 80.851562 93.472656 C 84.277344 93.539062 86.359375 93.933594 86.367188 94.277344 " fill-opacity="1" fill-rule="nonzero"/></g></g></g></g><g clip-path="url(#54ea632ed8)"><g clip-path="url(#bbf332d3ad)"><g clip-path="url(#4cd2fac61a)"><g clip-path="url(#e43c0f96f6)"><path fill="#000000" d="M 50.476562 130.917969 C 48.527344 136.546875 45.140625 144.023438 41.371094 152.261719 C 33.597656 168.535156 27.332031 181.824219 26.613281 181.523438 C 25.996094 181.25 31.167969 167.519531 38.992188 151.144531 C 46.742188 134.820312 52.519531 121.425781 53.292969 121.691406 C 53.628906 121.832031 52.527344 125.351562 50.476562 130.917969 " fill-opacity="1" fill-rule="nonzero"/></g></g></g></g></svg>