<svg xmlns="http://www.w3.org/2000/svg" xmlns:xlink="http://www.w3.org/1999/xlink" width="258" zoomAndPan="magnify" viewBox="0 0 193.5 241.499991" height="322" preserveAspectRatio="xMidYMid meet" version="1.0"><metadata/><defs><clipPath id="8f6674b9f0"><path d="M 15 18 L 170 18 L 170 228 L 15 228 Z M 15 18 " clip-rule="nonzero"/></clipPath><clipPath id="becb7dcf46"><path d="M 119.816406 0.0625 L 192.585938 44.527344 L 72.84375 240.496094 L 0.0742188 196.03125 Z M 119.816406 0.0625 " clip-rule="nonzero"/></clipPath><clipPath id="b73ccb0321"><path d="M 119.816406 0.0625 L 192.585938 44.527344 L 72.84375 240.496094 L 0.0742188 196.03125 Z M 119.816406 0.0625 " clip-rule="nonzero"/></clipPath><clipPath id="004e89d93d"><path d="M 119.816406 0.0625 L 192.585938 44.527344 L 72.84375 240.496094 L 0.0742188 196.03125 Z M 119.816406 0.0625 " clip-rule="nonzero"/></clipPath><clipPath id="b39494e3fa"><path d="M 75 159 L 111 159 L 111 212 L 75 212 Z M 75 159 " clip-rule="nonzero"/></clipPath><clipPath id="844853d3a0"><path d="M 119.816406 0.0625 L 192.585938 44.527344 L 72.84375 240.496094 L 0.0742188 196.03125 Z M 119.816406 0.0625 " clip-rule="nonzero"/></clipPath><clipPath id="706e4c83af"><path d="M 119.816406 0.0625 L 192.585938 44.527344 L 72.84375 240.496094 L 0.0742188 196.03125 Z M 119.816406 0.0625 " clip-rule="nonzero"/></clipPath><clipPath id="5b8d632988"><path d="M 119.816406 0.0625 L 192.585938 44.527344 L 72.84375 240.496094 L 0.0742188 196.03125 Z M 119.816406 0.0625 " clip-rule="nonzero"/></clipPath><clipPath id="c62b125940"><path d="M 28 177 L 76 177 L 76 212 L 28 212 Z M 28 177 " clip-rule="nonzero"/></clipPath><clipPath id="eb633f2193"><path d="M 119.816406 0.0625 L 192.585938 44.527344 L 72.84375 240.496094 L 0.0742188 196.03125 Z M 119.816406 0.0625 " clip-rule="nonzero"/></clipPath><clipPath id="c38b9bf224"><path d="M 119.816406 0.0625 L 192.585938 44.527344 L 72.84375 240.496094 L 0.0742188 196.03125 Z M 119.816406 0.0625 " clip-rule="nonzero"/></clipPath><clipPath id="957ce89f58"><path d="M 119.816406 0.0625 L 192.585938 44.527344 L 72.84375 240.496094 L 0.0742188 196.03125 Z M 119.816406 0.0625 " clip-rule="nonzero"/></clipPath><clipPath id="bd682c59a2"><path d="M 47 92 L 89 92 L 89 150 L 47 150 Z M 47 92 " clip-rule="nonzero"/></clipPath><clipPath id="95217833bf"><path d="M 119.816406 0.0625 L 192.585938 44.527344 L 72.84375 240.496094 L 0.0742188 196.03125 Z M 119.816406 0.0625 " clip-rule="nonzero"/></clipPath><clipPath id="254fe4e0dc"><path d="M 119.816406 0.0625 L 192.585938 44.527344 L 72.84375 240.496094 L 0.0742188 196.03125 Z M 119.816406 0.0625 " clip-rule="nonzero"/></clipPath><clipPath id="ee52042689"><path d="M 119.816406 0.0625 L 192.585938 44.527344 L 72.84375 240.496094 L 0.0742188 196.03125 Z M 119.816406 0.0625 " clip-rule="nonzero"/></clipPath><clipPath id="f5f2be28b7"><path d="M 15 18 L 170 18 L 170 228 L 15 228 Z M 15 18 " clip-rule="nonzero"/></clipPath><clipPath id="fd48af08f2"><path d="M 119.816406 0.0625 L 192.585938 44.527344 L 72.84375 240.496094 L 0.0742188 196.03125 Z M 119.816406 0.0625 " clip-rule="nonzero"/></clipPath><clipPath id="1420c85937"><path d="M 119.816406 0.0625 L 192.585938 44.527344 L 72.84375 240.496094 L 0.0742188 196.03125 Z M 119.816406 0.0625 " clip-rule="nonzero"/></clipPath><clipPath id="bd11fcc601"><path d="M 119.816406 0.0625 L 192.585938 44.527344 L 72.84375 240.496094 L 0.0742188 196.03125 Z M 119.816406 0.0625 " clip-rule="nonzero"/></clipPath><clipPath id="1dedd4cd03"><path d="M 75 159 L 111 159 L 111 212 L 75 212 Z M 75 159 " clip-rule="nonzero"/></clipPath><clipPath id="2ab454846e"><path d="M 119.816406 0.0625 L 192.585938 44.527344 L 72.84375 240.496094 L 0.0742188 196.03125 Z M 119.816406 0.0625 " clip-rule="nonzero"/></clipPath><clipPath id="c864d2125f"><path d="M 119.816406 0.0625 L 192.585938 44.527344 L 72.84375 240.496094 L 0.0742188 196.03125 Z M 119.816406 0.0625 " clip-rule="nonzero"/></clipPath><clipPath id="1fd5042f17"><path d="M 119.816406 0.0625 L 192.585938 44.527344 L 72.84375 240.496094 L 0.0742188 196.03125 Z M 119.816406 0.0625 " clip-rule="nonzero"/></clipPath><clipPath id="edfa5229f5"><path d="M 28 177 L 76 177 L 76 212 L 28 212 Z M 28 177 " clip-rule="nonzero"/></clipPath><clipPath id="93b122fc8b"><path d="M 119.816406 0.0625 L 192.585938 44.527344 L 72.84375 240.496094 L 0.0742188 196.03125 Z M 119.816406 0.0625 " clip-rule="nonzero"/></clipPath><clipPath id="2ab483dd73"><path d="M 119.816406 0.0625 L 192.585938 44.527344 L 72.84375 240.496094 L 0.0742188 196.03125 Z M 119.816406 0.0625 " clip-rule="nonzero"/></clipPath><clipPath id="ddb64cfbfa"><path d="M 119.816406 0.0625 L 192.585938 44.527344 L 72.84375 240.496094 L 0.0742188 196.03125 Z M 119.816406 0.0625 " clip-rule="nonzero"/></clipPath><clipPath id="18aa3a0090"><path d="M 47 92 L 89 92 L 89 150 L 47 150 Z M 47 92 " clip-rule="nonzero"/></clipPath><clipPath id="6e3a06783b"><path d="M 119.816406 0.0625 L 192.585938 44.527344 L 72.84375 240.496094 L 0.0742188 196.03125 Z M 119.816406 0.0625 " clip-rule="nonzero"/></clipPath><clipPath id="25920bbf9e"><path d="M 119.816406 0.0625 L 192.585938 44.527344 L 72.84375 240.496094 L 0.0742188 196.03125 Z M 119.816406 0.0625 " clip-rule="nonzero"/></clipPath><clipPath id="d1cdf9ea99"><path d="M 119.816406 0.0625 L 192.585938 44.527344 L 72.84375 240.496094 L 0.0742188 196.03125 Z M 119.816406 0.0625 " clip-rule="nonzero"/></clipPath></defs><g clip-path="url(#8f6674b9f0)"><g clip-path="url(#becb7dcf46)"><g clip-path="url(#b73ccb0321)"><g clip-path="url(#004e89d93d)"><path fill="#000000" d="M 143.3125 22.21875 C 150.574219 26.878906 154.804688 35.871094 164.535156 35.394531 C 164.527344 31.046875 149.027344 21.871094 143.3125 22.21875 Z M 160.375 47.226562 C 160.769531 46.980469 161.117188 46.707031 161.441406 46.390625 C 160.160156 46.328125 158.972656 46.125 157.894531 45.859375 C 156.078125 45.410156 154.503906 44.839844 153.144531 44.21875 C 150.40625 43.023438 148.441406 41.769531 146.992188 40.773438 C 144.105469 38.714844 143.324219 37.53125 143.507812 37.347656 C 143.707031 37.09375 144.796875 37.847656 147.785156 39.507812 C 149.28125 40.320312 151.253906 41.394531 153.898438 42.433594 C 155.203125 42.96875 156.703125 43.480469 158.375 43.867188 C 159.785156 44.1875 161.367188 44.394531 162.972656 44.28125 C 163.71875 42.820312 164.140625 41.148438 164.449219 39.519531 C 158.914062 39.625 153.917969 37.433594 149.550781 33.652344 C 146.742188 31.246094 144.300781 27.632812 141.148438 25.707031 C 140.3125 25.195312 139.527344 25.019531 138.773438 25.074219 C 140.777344 28.457031 143.082031 30.960938 145.179688 32.867188 C 147.65625 35.105469 149.746094 36.679688 151.359375 37.871094 C 154.601562 40.261719 155.824219 41.226562 155.660156 41.5 C 155.519531 41.726562 154.035156 41.214844 150.527344 39.105469 C 148.785156 38.054688 146.542969 36.566406 143.890625 34.308594 C 141.585938 32.34375 138.972656 29.632812 136.792969 25.832031 C 135.269531 27.023438 134.488281 29.363281 135.230469 31.488281 C 138.203125 39.953125 151.152344 45.933594 159.859375 47.703125 C 160 47.527344 160.15625 47.371094 160.375 47.226562 Z M 144.882812 51.605469 C 148.796875 53.484375 157.78125 57.945312 158.933594 51.769531 C 150.609375 50.144531 137.335938 44.324219 132.59375 35.988281 C 132.234375 36.019531 131.84375 35.9375 131.445312 35.710938 C 127.53125 33.449219 131.148438 42.769531 132.054688 43.679688 C 133.769531 45.40625 135.605469 46.71875 137.714844 47.863281 C 140.082031 49.144531 142.457031 50.4375 144.882812 51.605469 Z M 56.6875 222.316406 C 64.804688 224.640625 72.855469 224.425781 78.9375 219.222656 C 66.214844 220.359375 52.769531 211.875 42.328125 205.894531 C 33.742188 200.960938 22.964844 194.0625 19.53125 184.265625 C 18.992188 201.660156 42.5 218.261719 56.6875 222.316406 Z M 83.097656 214.503906 C 86.050781 212.523438 87.703125 206.851562 89.421875 203.882812 C 92.085938 199.28125 94.519531 194.542969 97.296875 190 C 104.121094 178.832031 110.753906 167.496094 117.925781 156.539062 C 124.375 146.675781 132.019531 136.222656 134.632812 124.523438 C 137 113.917969 134.410156 102.867188 136.976562 92.25 C 139.957031 79.976562 148.089844 70.054688 153.234375 58.667969 C 152.355469 58.53125 151.457031 58.339844 150.558594 58.082031 C 144.171875 68.53125 139.355469 77.511719 136.375 85.382812 C 133.371094 93.390625 133.039062 99.871094 132.625 104.96875 C 132.265625 110.09375 132.109375 113.660156 131.882812 115.933594 C 131.652344 118.203125 131.46875 119.167969 131.324219 119.160156 C 131.1875 119.164062 131.078125 118.191406 131.042969 115.917969 C 131.027344 113.644531 130.949219 110.105469 131.117188 104.917969 C 131.183594 103.636719 131.171875 102.261719 131.328125 100.757812 C 131.453125 99.257812 131.53125 97.722656 131.808594 96.003906 C 132.242188 92.570312 133.101562 88.867188 134.558594 84.71875 C 137.476562 76.738281 142.257812 67.71875 148.488281 57.464844 C 144.996094 56.277344 141.578125 54.605469 139.179688 53.378906 C 136.964844 52.214844 133.972656 50.621094 131.296875 48.585938 C 125.652344 57.554688 119.796875 64.316406 115.089844 69.855469 C 113.835938 71.28125 112.71875 72.53125 111.597656 73.796875 C 110.417969 75.058594 109.320312 76.25 108.15625 77.246094 C 105.925781 79.292969 103.816406 80.867188 102.035156 82.234375 C 94.761719 87.570312 92.410156 89.996094 92.140625 89.769531 C 92.050781 89.664062 92.5625 88.976562 93.914062 87.492188 C 95.28125 86.050781 97.613281 83.925781 101.113281 81.105469 C 102.835938 79.648438 104.84375 78.039062 106.960938 75.992188 C 108.054688 75.007812 109.078125 73.863281 110.1875 72.640625 C 111.277344 71.355469 112.390625 70.042969 113.621094 68.601562 C 118.285156 62.964844 123.980469 56.34375 129.660156 47.265625 C 128.933594 46.628906 128.273438 45.957031 127.652344 45.253906 C 119.441406 55.894531 110.546875 65.738281 100.636719 74.859375 C 96.6875 78.476562 92.492188 80.429688 87.625 82.519531 C 80.21875 85.679688 75.488281 89.90625 70.570312 96.222656 C 53.191406 118.460938 41.046875 144.058594 26.78125 168.253906 C 25.023438 171.242188 22.390625 174.234375 21.890625 177.777344 C 21.375 181.507812 23.703125 184.75 25.851562 187.550781 C 31.175781 194.511719 38.320312 198.9375 45.898438 203.097656 C 52.125 206.484375 58.1875 210.222656 64.835938 212.703125 C 69.460938 214.433594 78.503906 217.582031 83.097656 214.503906 Z M 91.886719 208.085938 C 87.5 215.902344 82.347656 225.132812 72.890625 227.265625 C 64.175781 229.230469 55.238281 227.042969 47.386719 223.082031 C 32.921875 215.765625 11.695312 198.722656 15.832031 180.054688 C 15.492188 179.488281 15.433594 178.765625 15.910156 178.023438 C 33.609375 150.382812 46.617188 119.972656 67 94.042969 C 70.234375 89.925781 73.554688 85.402344 78.066406 82.605469 C 82.957031 79.597656 88.824219 78.371094 93.566406 75.179688 C 106.03125 66.824219 116.386719 53.355469 125.371094 41.433594 C 124.921875 40.210938 124.734375 38.910156 124.910156 37.53125 C 125.382812 33.546875 127.613281 30.734375 130.925781 31.164062 C 130.914062 31.097656 130.886719 31.042969 130.886719 30.984375 C 130.460938 26.871094 133.644531 20.234375 138.355469 20.25 C 142.242188 15.238281 152.078125 20.082031 156.289062 22.59375 C 160.070312 24.851562 169.035156 30.328125 168.640625 36.03125 C 168.953125 36.492188 169.121094 37.117188 168.996094 37.804688 C 168.0625 42.691406 167.207031 47.277344 163.242188 50.3125 C 163.234375 50.324219 163.242188 50.34375 163.246094 50.363281 C 163.269531 55.792969 160.960938 58.132812 157.691406 58.726562 C 157.667969 58.871094 157.617188 59.039062 157.550781 59.199219 C 151.464844 73.011719 140.800781 85.007812 140.046875 100.644531 C 139.4375 113.210938 140.425781 124.382812 134.863281 136.117188 C 128.828125 148.820312 120.355469 160.285156 113.042969 172.253906 C 105.796875 184.109375 98.65625 195.957031 91.886719 208.085938 " fill-opacity="1" fill-rule="nonzero"/></g></g></g></g><g clip-path="url(#b39494e3fa)"><g clip-path="url(#844853d3a0)"><g clip-path="url(#706e4c83af)"><g clip-path="url(#5b8d632988)"><path fill="#000000" d="M 90.515625 199.582031 C 88.640625 203.019531 86.636719 206.058594 84.414062 208.203125 C 83.304688 209.265625 82.148438 210.097656 81.007812 210.628906 C 79.878906 211.164062 78.792969 211.371094 77.917969 211.410156 C 76.140625 211.40625 75.320312 210.902344 75.339844 210.785156 C 75.359375 210.597656 76.332031 210.765625 77.824219 210.5 C 79.347656 210.222656 81.367188 209.160156 83.230469 207.042969 C 85.105469 204.941406 86.871094 201.992188 88.605469 198.5625 C 89.453125 196.835938 90.359375 195.011719 91.277344 193.121094 C 92.203125 191.214844 93.335938 189.199219 94.484375 187.316406 C 99.183594 179.640625 103.089844 172.628906 105.929688 167.480469 C 108.625 162.304688 110.351562 159.078125 110.667969 159.230469 C 110.925781 159.386719 109.746094 162.824219 107.417969 168.226562 C 104.957031 173.570312 101.179688 180.878906 96.511719 188.519531 C 95.328125 190.453125 94.285156 192.261719 93.34375 194.15625 C 92.390625 196.027344 91.472656 197.859375 90.515625 199.582031 " fill-opacity="1" fill-rule="nonzero"/></g></g></g></g><g clip-path="url(#c62b125940)"><g clip-path="url(#eb633f2193)"><g clip-path="url(#c38b9bf224)"><g clip-path="url(#957ce89f58)"><path fill="#000000" d="M 75.546875 205.410156 C 75.453125 207.050781 74.394531 208.449219 73.550781 209.28125 C 72.363281 210.410156 71.054688 210.800781 69.785156 211.019531 C 68.507812 211.117188 67.316406 211.042969 66.25 210.78125 C 61.976562 209.773438 59.101562 207.847656 57.097656 206.640625 C 55.128906 205.359375 54.117188 204.558594 54.203125 204.421875 C 54.289062 204.273438 55.464844 204.808594 57.550781 205.839844 C 59.628906 206.796875 62.652344 208.4375 66.546875 209.144531 C 67.527344 209.335938 68.53125 209.320312 69.527344 209.207031 C 70.476562 209.023438 71.46875 208.601562 72.078125 208.007812 C 72.261719 207.886719 72.460938 207.546875 72.636719 207.332031 L 72.933594 206.957031 L 73.007812 206.871094 L 73.039062 206.855469 L 73.089844 206.703125 C 73.332031 206.25 73.4375 205.777344 73.484375 205.273438 C 73.539062 204.304688 73.078125 203.242188 72.355469 202.242188 C 70.851562 200.246094 68.558594 198.515625 66.164062 196.769531 C 64.957031 195.902344 63.679688 194.898438 62.515625 193.941406 C 61.316406 192.992188 60.082031 192.046875 58.828125 191.113281 C 53.773438 187.375 48.734375 184.09375 43.828125 181.914062 C 41.382812 180.832031 38.957031 180.015625 36.679688 179.828125 C 36.121094 179.773438 35.566406 179.746094 35.035156 179.804688 C 34.761719 179.8125 34.511719 179.839844 34.28125 179.902344 C 34.054688 179.917969 33.800781 179.964844 33.515625 180.050781 L 33.113281 180.179688 L 32.816406 180.3125 L 32.148438 180.609375 C 31.933594 180.722656 31.757812 180.867188 31.554688 180.984375 C 31.351562 181.105469 31.1875 181.246094 31.042969 181.402344 C 30.390625 181.988281 30.027344 182.75 29.898438 183.542969 C 29.765625 184.328125 29.855469 185.132812 30.035156 185.886719 C 30.402344 187.375 31.082031 188.605469 31.675781 189.5625 C 32.863281 191.441406 33.851562 192.308594 33.75 192.472656 C 33.683594 192.582031 32.460938 191.957031 30.925781 190.09375 C 30.179688 189.167969 29.328125 187.925781 28.769531 186.242188 C 28.488281 185.394531 28.304688 184.417969 28.421875 183.34375 C 28.5 182.277344 28.992188 181.089844 29.859375 180.242188 C 31.519531 178.457031 34.203125 177.703125 36.820312 177.875 C 39.453125 178.015625 42.082031 178.835938 44.679688 179.910156 C 49.886719 182.09375 55.082031 185.40625 60.234375 189.207031 C 61.523438 190.167969 62.78125 191.136719 63.992188 192.121094 C 65.214844 193.128906 66.324219 194.023438 67.539062 194.914062 C 69.933594 196.71875 72.339844 198.515625 74.109375 200.972656 C 74.972656 202.203125 75.664062 203.742188 75.546875 205.410156 " fill-opacity="1" fill-rule="nonzero"/></g></g></g></g><g clip-path="url(#bd682c59a2)"><g clip-path="url(#95217833bf)"><g clip-path="url(#254fe4e0dc)"><g clip-path="url(#ee52042689)"><path fill="#000000" d="M 88.058594 92.445312 C 88.253906 92.824219 84.519531 94.445312 79.953125 98.839844 C 77.664062 101.035156 75.246094 103.925781 72.835938 107.390625 C 70.449219 110.871094 68.066406 114.871094 65.480469 119.105469 C 64.171875 121.203125 62.945312 123.238281 61.789062 125.203125 C 60.703125 127.21875 59.652344 129.179688 58.726562 131.09375 C 56.828125 134.894531 55.183594 138.398438 53.621094 141.238281 C 50.539062 147.039062 47.984375 150.125 47.742188 149.976562 C 47.421875 149.78125 49.507812 146.320312 52.125 140.507812 C 53.476562 137.597656 54.960938 134.050781 56.773438 130.160156 C 57.660156 128.199219 58.6875 126.1875 59.773438 124.101562 C 60.949219 122.035156 62.195312 119.925781 63.480469 117.863281 C 66.039062 113.675781 68.523438 109.636719 71.074219 106.128906 C 73.640625 102.652344 76.3125 99.730469 78.835938 97.601562 C 83.933594 93.320312 88.003906 92.238281 88.058594 92.445312 " fill-opacity="1" fill-rule="nonzero"/></g></g></g></g><g clip-path="url(#f5f2be28b7)"><g clip-path="url(#fd48af08f2)"><g clip-path="url(#1420c85937)"><g clip-path="url(#bd11fcc601)"><path fill="#000000" d="M 143.3125 22.21875 C 150.574219 26.878906 154.804688 35.871094 164.535156 35.394531 C 164.527344 31.046875 149.027344 21.871094 143.3125 22.21875 Z M 160.375 47.226562 C 160.769531 46.980469 161.117188 46.707031 161.441406 46.390625 C 160.160156 46.328125 158.972656 46.125 157.894531 45.859375 C 156.078125 45.410156 154.503906 44.839844 153.144531 44.21875 C 150.40625 43.023438 148.441406 41.769531 146.992188 40.773438 C 144.105469 38.714844 143.324219 37.53125 143.507812 37.347656 C 143.707031 37.09375 144.796875 37.847656 147.785156 39.507812 C 149.28125 40.320312 151.253906 41.394531 153.898438 42.433594 C 155.203125 42.96875 156.703125 43.480469 158.375 43.867188 C 159.785156 44.1875 161.367188 44.394531 162.972656 44.28125 C 163.71875 42.820312 164.140625 41.148438 164.449219 39.519531 C 158.914062 39.625 153.917969 37.433594 149.550781 33.652344 C 146.742188 31.246094 144.300781 27.632812 141.148438 25.707031 C 140.3125 25.195312 139.527344 25.019531 138.773438 25.074219 C 140.777344 28.457031 143.082031 30.960938 145.179688 32.867188 C 147.65625 35.105469 149.746094 36.679688 151.359375 37.871094 C 154.601562 40.261719 155.824219 41.226562 155.660156 41.5 C 155.519531 41.726562 154.035156 41.214844 150.527344 39.105469 C 148.785156 38.054688 146.542969 36.566406 143.890625 34.308594 C 141.585938 32.34375 138.972656 29.632812 136.792969 25.832031 C 135.269531 27.023438 134.488281 29.363281 135.230469 31.488281 C 138.203125 39.953125 151.152344 45.933594 159.859375 47.703125 C 160 47.527344 160.15625 47.371094 160.375 47.226562 Z M 144.882812 51.605469 C 148.796875 53.484375 157.78125 57.945312 158.933594 51.769531 C 150.609375 50.144531 137.335938 44.324219 132.59375 35.988281 C 132.234375 36.019531 131.84375 35.9375 131.445312 35.710938 C 127.53125 33.449219 131.148438 42.769531 132.054688 43.679688 C 133.769531 45.40625 135.605469 46.71875 137.714844 47.863281 C 140.082031 49.144531 142.457031 50.4375 144.882812 51.605469 Z M 56.6875 222.316406 C 64.804688 224.640625 72.855469 224.425781 78.9375 219.222656 C 66.214844 220.359375 52.769531 211.875 42.328125 205.894531 C 33.742188 200.960938 22.964844 194.0625 19.53125 184.265625 C 18.992188 201.660156 42.5 218.261719 56.6875 222.316406 Z M 83.097656 214.503906 C 86.050781 212.523438 87.703125 206.851562 89.421875 203.882812 C 92.085938 199.28125 94.519531 194.542969 97.296875 190 C 104.121094 178.832031 110.753906 167.496094 117.925781 156.539062 C 124.375 146.675781 132.019531 136.222656 134.632812 124.523438 C 137 113.917969 134.410156 102.867188 136.976562 92.25 C 139.957031 79.976562 148.089844 70.054688 153.234375 58.667969 C 152.355469 58.53125 151.457031 58.339844 150.558594 58.082031 C 144.171875 68.53125 139.355469 77.511719 136.375 85.382812 C 133.371094 93.390625 133.039062 99.871094 132.625 104.96875 C 132.265625 110.09375 132.109375 113.660156 131.882812 115.933594 C 131.652344 118.203125 131.46875 119.167969 131.324219 119.160156 C 131.1875 119.164062 131.078125 118.191406 131.042969 115.917969 C 131.027344 113.644531 130.949219 110.105469 131.117188 104.917969 C 131.183594 103.636719 131.171875 102.261719 131.328125 100.757812 C 131.453125 99.257812 131.53125 97.722656 131.808594 96.003906 C 132.242188 92.570312 133.101562 88.867188 134.558594 84.71875 C 137.476562 76.738281 142.257812 67.71875 148.488281 57.464844 C 144.996094 56.277344 141.578125 54.605469 139.179688 53.378906 C 136.964844 52.214844 133.972656 50.621094 131.296875 48.585938 C 125.652344 57.554688 119.796875 64.316406 115.089844 69.855469 C 113.835938 71.28125 112.71875 72.53125 111.597656 73.796875 C 110.417969 75.058594 109.320312 76.25 108.15625 77.246094 C 105.925781 79.292969 103.816406 80.867188 102.035156 82.234375 C 94.761719 87.570312 92.410156 89.996094 92.140625 89.769531 C 92.050781 89.664062 92.5625 88.976562 93.914062 87.492188 C 95.28125 86.050781 97.613281 83.925781 101.113281 81.105469 C 102.835938 79.648438 104.84375 78.039062 106.960938 75.992188 C 108.054688 75.007812 109.078125 73.863281 110.1875 72.640625 C 111.277344 71.355469 112.390625 70.042969 113.621094 68.601562 C 118.285156 62.964844 123.980469 56.34375 129.660156 47.265625 C 128.933594 46.628906 128.273438 45.957031 127.652344 45.253906 C 119.441406 55.894531 110.546875 65.738281 100.636719 74.859375 C 96.6875 78.476562 92.492188 80.429688 87.625 82.519531 C 80.21875 85.679688 75.488281 89.90625 70.570312 96.222656 C 53.191406 118.460938 41.046875 144.058594 26.78125 168.253906 C 25.023438 171.242188 22.390625 174.234375 21.890625 177.777344 C 21.375 181.507812 23.703125 184.75 25.851562 187.550781 C 31.175781 194.511719 38.320312 198.9375 45.898438 203.097656 C 52.125 206.484375 58.1875 210.222656 64.835938 212.703125 C 69.460938 214.433594 78.503906 217.582031 83.097656 214.503906 Z M 91.886719 208.085938 C 87.5 215.902344 82.347656 225.132812 72.890625 227.265625 C 64.175781 229.230469 55.238281 227.042969 47.386719 223.082031 C 32.921875 215.765625 11.695312 198.722656 15.832031 180.054688 C 15.492188 179.488281 15.433594 178.765625 15.910156 178.023438 C 33.609375 150.382812 46.617188 119.972656 67 94.042969 C 70.234375 89.925781 73.554688 85.402344 78.066406 82.605469 C 82.957031 79.597656 88.824219 78.371094 93.566406 75.179688 C 106.03125 66.824219 116.386719 53.355469 125.371094 41.433594 C 124.921875 40.210938 124.734375 38.910156 124.910156 37.53125 C 125.382812 33.546875 127.613281 30.734375 130.925781 31.164062 C 130.914062 31.097656 130.886719 31.042969 130.886719 30.984375 C 130.460938 26.871094 133.644531 20.234375 138.355469 20.25 C 142.242188 15.238281 152.078125 20.082031 156.289062 22.59375 C 160.070312 24.851562 169.035156 30.328125 168.640625 36.03125 C 168.953125 36.492188 169.121094 37.117188 168.996094 37.804688 C 168.0625 42.691406 167.207031 47.277344 163.242188 50.3125 C 163.234375 50.324219 163.242188 50.34375 163.246094 50.363281 C 163.269531 55.792969 160.960938 58.132812 157.691406 58.726562 C 157.667969 58.871094 157.617188 59.039062 157.550781 59.199219 C 151.464844 73.011719 140.800781 85.007812 140.046875 100.644531 C 139.4375 113.210938 140.425781 124.382812 134.863281 136.117188 C 128.828125 148.820312 120.355469 160.285156 113.042969 172.253906 C 105.796875 184.109375 98.65625 195.957031 91.886719 208.085938 " fill-opacity="1" fill-rule="nonzero"/></g></g></g></g><g clip-path="url(#1dedd4cd03)"><g clip-path="url(#2ab454846e)"><g clip-path="url(#c864d2125f)"><g clip-path="url(#1fd5042f17)"><path fill="#000000" d="M 90.515625 199.582031 C 88.640625 203.019531 86.636719 206.058594 84.414062 208.203125 C 83.304688 209.265625 82.148438 210.097656 81.007812 210.628906 C 79.878906 211.164062 78.792969 211.371094 77.917969 211.410156 C 76.140625 211.40625 75.320312 210.902344 75.339844 210.785156 C 75.359375 210.597656 76.332031 210.765625 77.824219 210.5 C 79.347656 210.222656 81.367188 209.160156 83.230469 207.042969 C 85.105469 204.941406 86.871094 201.992188 88.605469 198.5625 C 89.453125 196.835938 90.359375 195.011719 91.277344 193.121094 C 92.203125 191.214844 93.335938 189.199219 94.484375 187.316406 C 99.183594 179.640625 103.089844 172.628906 105.929688 167.480469 C 108.625 162.304688 110.351562 159.078125 110.667969 159.230469 C 110.925781 159.386719 109.746094 162.824219 107.417969 168.226562 C 104.957031 173.570312 101.179688 180.878906 96.511719 188.519531 C 95.328125 190.453125 94.285156 192.261719 93.34375 194.15625 C 92.390625 196.027344 91.472656 197.859375 90.515625 199.582031 " fill-opacity="1" fill-rule="nonzero"/></g></g></g></g><g clip-path="url(#edfa5229f5)"><g clip-path="url(#93b122fc8b)"><g clip-path="url(#2ab483dd73)"><g clip-path="url(#ddb64cfbfa)"><path fill="#000000" d="M 75.546875 205.410156 C 75.453125 207.050781 74.394531 208.449219 73.550781 209.28125 C 72.363281 210.410156 71.054688 210.800781 69.785156 211.019531 C 68.507812 211.117188 67.316406 211.042969 66.25 210.78125 C 61.976562 209.773438 59.101562 207.847656 57.097656 206.640625 C 55.128906 205.359375 54.117188 204.558594 54.203125 204.421875 C 54.289062 204.273438 55.464844 204.808594 57.550781 205.839844 C 59.628906 206.796875 62.652344 208.4375 66.546875 209.144531 C 67.527344 209.335938 68.53125 209.320312 69.527344 209.207031 C 70.476562 209.023438 71.46875 208.601562 72.078125 208.007812 C 72.261719 207.886719 72.460938 207.546875 72.636719 207.332031 L 72.933594 206.957031 L 73.007812 206.871094 L 73.039062 206.855469 L 73.089844 206.703125 C 73.332031 206.25 73.4375 205.777344 73.484375 205.273438 C 73.539062 204.304688 73.078125 203.242188 72.355469 202.242188 C 70.851562 200.246094 68.558594 198.515625 66.164062 196.769531 C 64.957031 195.902344 63.679688 194.898438 62.515625 193.941406 C 61.316406 192.992188 60.082031 192.046875 58.828125 191.113281 C 53.773438 187.375 48.734375 184.09375 43.828125 181.914062 C 41.382812 180.832031 38.957031 180.015625 36.679688 179.828125 C 36.121094 179.773438 35.566406 179.746094 35.035156 179.804688 C 34.761719 179.8125 34.511719 179.839844 34.28125 179.902344 C 34.054688 179.917969 33.800781 179.964844 33.515625 180.050781 L 33.113281 180.179688 L 32.816406 180.3125 L 32.148438 180.609375 C 31.933594 180.722656 31.757812 180.867188 31.554688 180.984375 C 31.351562 181.105469 31.1875 181.246094 31.042969 181.402344 C 30.390625 181.988281 30.027344 182.75 29.898438 183.542969 C 29.765625 184.328125 29.855469 185.132812 30.035156 185.886719 C 30.402344 187.375 31.082031 188.605469 31.675781 189.5625 C 32.863281 191.441406 33.851562 192.308594 33.75 192.472656 C 33.683594 192.582031 32.460938 191.957031 30.925781 190.09375 C 30.179688 189.167969 29.328125 187.925781 28.769531 186.242188 C 28.488281 185.394531 28.304688 184.417969 28.421875 183.34375 C 28.5 182.277344 28.992188 181.089844 29.859375 180.242188 C 31.519531 178.457031 34.203125 177.703125 36.820312 177.875 C 39.453125 178.015625 42.082031 178.835938 44.679688 179.910156 C 49.886719 182.09375 55.082031 185.40625 60.234375 189.207031 C 61.523438 190.167969 62.78125 191.136719 63.992188 192.121094 C 65.214844 193.128906 66.324219 194.023438 67.539062 194.914062 C 69.933594 196.71875 72.339844 198.515625 74.109375 200.972656 C 74.972656 202.203125 75.664062 203.742188 75.546875 205.410156 " fill-opacity="1" fill-rule="nonzero"/></g></g></g></g><g clip-path="url(#18aa3a0090)"><g clip-path="url(#6e3a06783b)"><g clip-path="url(#25920bbf9e)"><g clip-path="url(#d1cdf9ea99)"><path fill="#000000" d="M 88.058594 92.445312 C 88.253906 92.824219 84.519531 94.445312 79.953125 98.839844 C 77.664062 101.035156 75.246094 103.925781 72.835938 107.390625 C 70.449219 110.871094 68.066406 114.871094 65.480469 119.105469 C 64.171875 121.203125 62.945312 123.238281 61.789062 125.203125 C 60.703125 127.21875 59.652344 129.179688 58.726562 131.09375 C 56.828125 134.894531 55.183594 138.398438 53.621094 141.238281 C 50.539062 147.039062 47.984375 150.125 47.742188 149.976562 C 47.421875 149.78125 49.507812 146.320312 52.125 140.507812 C 53.476562 137.597656 54.960938 134.050781 56.773438 130.160156 C 57.660156 128.199219 58.6875 126.1875 59.773438 124.101562 C 60.949219 122.035156 62.195312 119.925781 63.480469 117.863281 C 66.039062 113.675781 68.523438 109.636719 71.074219 106.128906 C 73.640625 102.652344 76.3125 99.730469 78.835938 97.601562 C 83.933594 93.320312 88.003906 92.238281 88.058594 92.445312 " fill-opacity="1" fill-rule="nonzero"/></g></g></g></g></svg>