<svg xmlns="http://www.w3.org/2000/svg" xmlns:xlink="http://www.w3.org/1999/xlink" width="250" zoomAndPan="magnify" viewBox="0 0 187.5 178.499995" height="238" preserveAspectRatio="xMidYMid meet" version="1.0"><metadata/><defs><g/><clipPath id="f979587a5b"><path d="M 46.574219 42.449219 L 140.195312 42.449219 L 140.195312 135.300781 L 46.574219 135.300781 Z M 46.574219 42.449219 " clip-rule="nonzero"/></clipPath><clipPath id="29cd752254"><path d="M 0.574219 0.449219 L 94.195312 0.449219 L 94.195312 93.300781 L 0.574219 93.300781 Z M 0.574219 0.449219 " clip-rule="nonzero"/></clipPath><clipPath id="28346fd443"><rect x="0" width="95" y="0" height="94"/></clipPath></defs><g clip-path="url(#f979587a5b)"><g transform="matrix(1, 0, 0, 1, 46, 42)"><g clip-path="url(#28346fd443)"><g clip-path="url(#29cd752254)"><path fill="#5170ff" d="M 0.574219 0.449219 L 94.15625 0.449219 L 94.15625 93.300781 L 0.574219 93.300781 Z M 0.574219 0.449219 " fill-opacity="1" fill-rule="nonzero"/></g></g></g></g><g fill="#fcfdfd" fill-opacity="1"><g transform="translate(56.229227, 109.068691)"><g><path d="M 34.0625 -40.96875 L 33.953125 -30.046875 L 30.828125 -30.046875 L 28.296875 -38.828125 L 16.734375 -38.828125 C 16.691406 -36.085938 16.660156 -33.304688 16.640625 -30.484375 C 16.628906 -27.671875 16.625 -24.800781 16.625 -21.875 L 24.125 -21.875 L 24.953125 -27.96875 L 27.703125 -27.96875 L 27.703125 -13.828125 L 24.953125 -13.828125 L 24.1875 -19.90625 L 16.625 -19.90625 L 16.625 -19.75 C 16.625 -16.75 16.628906 -13.820312 16.640625 -10.96875 C 16.660156 -8.113281 16.691406 -5.28125 16.734375 -2.46875 L 22.59375 -1.859375 L 22.59375 0 L 2.25 0 L 2.25 -1.859375 L 7.1875 -2.359375 C 7.257812 -5.140625 7.300781 -7.9375 7.3125 -10.75 C 7.332031 -13.5625 7.34375 -16.394531 7.34375 -19.25 L 7.34375 -21.65625 C 7.34375 -24.507812 7.332031 -27.351562 7.3125 -30.1875 C 7.300781 -33.019531 7.257812 -35.847656 7.1875 -38.671875 L 2.25 -39.109375 L 2.25 -40.96875 Z M 34.0625 -40.96875 "/></g></g></g><g fill="#fcfdfd" fill-opacity="1"><g transform="translate(91.712237, 109.068691)"><g><path d="M 36.421875 -12.015625 L 36.640625 -2.140625 C 34.953125 -1.148438 33.09375 -0.363281 31.0625 0.21875 C 29.039062 0.800781 26.75 1.09375 24.1875 1.09375 C 21.15625 1.09375 18.320312 0.644531 15.6875 -0.25 C 13.050781 -1.144531 10.738281 -2.488281 8.75 -4.28125 C 6.757812 -6.070312 5.195312 -8.316406 4.0625 -11.015625 C 2.925781 -13.722656 2.359375 -16.890625 2.359375 -20.515625 C 2.359375 -24.171875 2.953125 -27.347656 4.140625 -30.046875 C 5.328125 -32.753906 6.953125 -34.992188 9.015625 -36.765625 C 11.085938 -38.546875 13.46875 -39.875 16.15625 -40.75 C 18.84375 -41.625 21.664062 -42.0625 24.625 -42.0625 C 27 -42.0625 29.082031 -41.785156 30.875 -41.234375 C 32.664062 -40.691406 34.457031 -39.925781 36.25 -38.9375 L 36.03125 -28.953125 L 32.796875 -28.953125 L 29.78125 -39.4375 C 28.570312 -39.800781 27.238281 -39.984375 25.78125 -39.984375 C 23.21875 -39.984375 20.898438 -39.296875 18.828125 -37.921875 C 16.765625 -36.554688 15.117188 -34.425781 13.890625 -31.53125 C 12.671875 -28.644531 12.0625 -24.953125 12.0625 -20.453125 C 12.0625 -15.953125 12.671875 -12.265625 13.890625 -9.390625 C 15.117188 -6.523438 16.785156 -4.414062 18.890625 -3.0625 C 20.992188 -1.71875 23.363281 -1.046875 26 -1.046875 C 27.53125 -1.046875 28.957031 -1.28125 30.28125 -1.75 L 33.1875 -12.015625 Z M 36.421875 -12.015625 "/></g></g></g></svg>